/* XPM */
static char *_613376538374[] = {
/* columns rows colors chars-per-pixel */
"64 64 136 2 ",
"   c #000000",
".  c #090909",
"X  c #170A06",
"o  c #190B05",
"O  c #170B08",
"+  c #190C08",
"@  c #151515",
"#  c #240E05",
"$  c #280F03",
"%  c #261106",
"&  c #2B1305",
"*  c #2F1906",
"=  c #261308",
"-  c #2B150A",
";  c #2D190D",
":  c #311604",
">  c #341904",
",  c #3E1C07",
"<  c #321708",
"1  c #331A0A",
"2  c #3A1D0A",
"3  c #2C1C11",
"4  c #321D12",
"5  c #28200C",
"6  c #3D200C",
"7  c #342114",
"8  c #3B2315",
"9  c #382C14",
"0  c #36241B",
"q  c #3B261A",
"w  c #3D291D",
"e  c #2C2C2C",
"r  c #3B2B23",
"t  c #3C3129",
"y  c #343434",
"u  c gray23",
"i  c #401D06",
"p  c #421E09",
"a  c #422106",
"s  c #4D2302",
"d  c #43220B",
"f  c #4A260C",
"g  c #4C280E",
"h  c #532603",
"j  c #552904",
"k  c #5B2A04",
"l  c #542808",
"z  c #5E2F0C",
"x  c #57310E",
"c  c #5C330E",
"v  c #442511",
"b  c #4E2B12",
"n  c #422B1C",
"m  c #492B18",
"M  c #502D13",
"N  c #522F18",
"B  c #403018",
"V  c #483818",
"C  c #5B3413",
"Z  c #52321D",
"A  c #543C1C",
"S  c #612E06",
"D  c #632F09",
"F  c #663106",
"G  c #693307",
"H  c #673208",
"J  c #6D380D",
"K  c #623A15",
"L  c #6C3B14",
"P  c #653E1A",
"I  c #703D16",
"U  c #733F19",
"Y  c #442E21",
"T  c #4B3324",
"R  c #42342D",
"E  c #4F392A",
"W  c #533524",
"Q  c #543B2C",
"!  c #423631",
"~  c #493C35",
"^  c #6E4016",
"/  c #65461C",
"(  c #6B431A",
")  c #67481D",
"_  c #6D4C1C",
"`  c #714416",
"'  c #73431A",
"]  c #76481A",
"[  c #7A4C1C",
"{  c #6F501F",
"}  c #74521E",
"|  c #5C4020",
" . c #664B22",
".. c #6C4824",
"X. c #774624",
"o. c #744C28",
"O. c #735220",
"+. c #795522",
"@. c #7D5822",
"#. c gray26",
"$. c #4A4A4A",
"%. c #535353",
"&. c #5C5C5C",
"*. c #606060",
"=. c #686868",
"-. c gray49",
";. c #825D25",
":. c #905C34",
">. c #8F6126",
",. c #8E652C",
"<. c #936225",
"1. c #90642B",
"2. c #8F6730",
"3. c #926B33",
"4. c #956F39",
"5. c #99753E",
"6. c #9A7742",
"7. c #9B7944",
"8. c #9D7D48",
"9. c #9F804A",
"0. c #A0804C",
"q. c #818181",
"w. c #8D8D8D",
"e. c #949494",
"r. c #9C9C9C",
"t. c #ABABAB",
"y. c #B4B4B4",
"u. c #BBBBBB",
"i. c #C1C1C1",
"p. c #CDCDCD",
"a. c #D4D4D4",
"s. c gray86",
"d. c #E3E3E3",
"f. c #ECECEC",
"g. c #F4F4F4",
"h. c #FFFFFF",
/* pixels */
"B B B B B B B B B B n 9 B B B B B B B B B B B B B B B B n 9 B B B B B B B B B B B B B B B B B B B B B B B B B B B B B B B B B B ",
"................................................................................................................................",
":.:.:.:.:.:.:.:.:.:.:.:.:.:.2.:.:.:.:.:.:.:.:.:.:.:.:.:.:.:.:.:.2.:.:.:.:.:.:.:.:.:.:.:.:.:.:.:.:.:.:.:.:.:.:.:.:.:.:.:.:.:.:.:.",
"A A A A A A A 9 A 5 9 A A A A A A A A A A A A A A 9 A 5 9 A A A A 8 A 5 9 A A A A A A 9 A 5 9 A A A A A A A A A A A 9 A 5 9 A A ",
"V V ..o.o.o.o.A :.5 A :.| V V V V o.o.V ..V ..V V A :.5 A :.o.V o.A :.5 A :.| V V V | A :.5 A :.V o.V V o.V o.V o.o.A :.5 A :...",
"V V ..o.o.o.| A :.; A :.o.V V V A o.o.V ..V ..V V A :.5 A :.o.V o.A :.5 A :.o.| V | o.A :.5 A :.V o.V V o.V o.V o.o.A :.5 A :...",
"V V | o.o.o.A A :.5 A :.o.A V V A o.o.V ..V ..V V A :.5 A :...V o.A :.5 A :.o.o.| o.o.A :.5 A :.V o.V V o.V o.V o.o.A :.5 A :...",
"A V A ..o.o.A A :.5 A :.o.A V V | o...V ..V ..V V A :.5 A :...V o.A :.5 A :.o.o.o.o.o.A :.5 A :.V o.V V o.V o.V o.o.A :.5 A :...",
"..V V | o.| V A :.5 A :.o.| V A ..o...V ..V ..V V A :.5 A :...V o.A :.5 A :.o.o.o.o.o.A :.5 A :.V o.V V o.V o.V ..o.A :.5 A :.A ",
"..V A V | A V A :.5 A :.o...V | o.o.| V ..V ..V V A :.5 A :.| V o.A :.5 A :.o.o.o.o.o.A :.5 A :.V o.V V o.V o.V ..o.A :.5 A :.A ",
"o.A V V A V V A :.5 A :.o.o.| ..o.o.| V ..V ..V V A :.5 A :.| V o.A :.5 A :.o.o.o.o.o.A :.5 W :.V o.V V o.V o.V | o.A :.5 A :.A ",
"o.A V V V V A A :.5 A :.o.o...o.o.o.A V ..V ..V V A :.5 A :.V V o.A :.5 A :.o.o.o.o.o.A :.5 A :.V o.V V o.V o.V | o.A :.5 A :.V ",
"..o.V V V A o.A :.5 A :.o.~ ; 3 3 ; 3 ; ; ; ; 4 ; 5 1 4 7 7 7 7 7 0 0 0 0 0 q w r r t r R R t ! ! ~ R V o.V o.A V o.A :.5 A :.V ",
"..o.A V V A o.A :.3 A :.o.E 8 d v f g g g g f g g g b g M b g b b b b b N Z N Z Z Z Z Z W W W E Q W * V o.V o.A V o.A :.5 A :.V ",
"| o.o.V A o.o.A :.5 A :.o.E f 2 < 1 < * - 1 < < - > 1 1 - * 1 2 1 1 7 1 1 1 8 7 7 7 8 q n w Y Y m f * V o.V o.A V o.A :.5 A :.V ",
"A o.o.o.A o.| A :.5 A :...E f 1 ; 1 1 * < 1 1 1 1 1 > 1 2 2 2 > 2 2 6 6 7 6 7 6 7 7 7 7 8 w w 4 2 f * V o.V o.A V o.A :.5 A :.A ",
"V ..o.o.| o.A A :.5 A :...E v 1 f D k k S S S S S S S F F G G G G G G G G J J J J J L L U U ' a 2 f < V o.V o.| V o.A :.3 A :.A ",
"V ..o.o.o.o.A A :.5 A :.W T p ; p l & * : : : : : : : : > > > > > > > > > > > > > > > > : < S s 2 f & V o.V o.| V ..A :.5 A :.A ",
"V | ..o.o.o.V A :.5 A :./ T a ; 2 l ] / / _ ( ) / / / / ) ) ) / ) ) _ { ) .. . . . ... .@.( S a , f * V o.V o...V ..A :.5 A :...",
"V A ..o.o.| V A :.5 A :.A T d ; 2 l ,.h.h.h.h.h.h.h.h.h.h.h.h.h.h.h.h.h.h.h.h.h.h.h.h.h.h.[ k a , f < V o.V o...V ..A 2.5 A :...",
"V V | o.o.A V A :.5 A :.A Y d - 2 h ;.h.h.h.h.h.h.h.h.h.h.h.h.h.h.h.h.h.h.h.h.h.h.h.h.h.h.] k a 1 f 1 V o.V o...V | A :.5 A :...",
"V V A o.o.A V A :.5 A :.V Y 6 - 1 h ;.h.h.h.h.h.h.h.h.h.h.h.h.h.h.h.h.h.h.h.h.h.h.h.h.h.h.] S a 1 d * V o.V o.o.V | A :.5 A :...",
"A V A | A V V A :.5 A :.V n p = 1 s ;.h.h.h.h.h.h.h.h.h.h.h.g.h.h.g.h.h.h.h.h.h.h.h.h.h.h.] k a : d > V o.V ..o.V V A :.5 A :...",
"A V V A V V A A :.5 A :.V n p - > h ;.s.q.q.q.q.r.-.q.q.r.h.g.w.q.q.0.u.h.h.h.h.h.h.h.h.h.] j i > d > V o.V ..o.A V A :.5 A :...",
"A V V V V V A A :.5 A :.V v a - 2 s ;.y.        r.$.    e h.h.r.      . t.h.h.h.h.h.h.h.h.^ j i 1 b > V o.V | o.A V A :.5 A :.| ",
"..V V V V V ..A :.5 A :.V q d - > s @.y.        u.g.$.  y h.h.h.t..     . t.h.h.h.h.h.h.h.^ k a 1 f * V o.V | o.| V A :.5 A :.A ",
"..V V V V V ..A :.5 A :.V n p - > h } y.        y.h.g.#.e h.h.h.h.t..     . t.h.h.h.h.h.h.' j i > d 1 V o.V A o.| V A :.5 A :.A ",
"..A V V V A A A :.5 A :.V q p % 1 h } y.        y.h.h.g.q.g.h.h.h.h.t..     . t.h.h.h.h.h.` j a > d - V o.V A o...A A :.5 A :.V ",
"| A V V V A A A :.5 A :.V w p & * s O.f.u       %.g.h.h.h.h.h.h.h.h.h.t..     . t.h.h.h.h.` j a - a 1 V o.V A o...A A :.5 A :.V ",
"A ..V V V ..A A :.5 A :.V v p % * s } h.f.#.      %.g.h.h.h.h.h.h.h.h.h.t..     . t.h.h.h.L j a & d 1 V o.V V o.o.| V :.5 A :.V ",
"A ..A V V ..V A :.5 A :.V 8 a & & h ] h.h.f.#.      %.g.h.h.h.h.h.h.h.h.h.t..     . t.h.h.L j a & f 5 V o.V V o.o.| A :.5 A :.V ",
"V | A V ..| V A :.5 A :.A q a - - s _ h.h.h.f.u       %.g.h.h.h.h.h.h.h.h.h.u.@     . t.h.K j a * a 1 V o.V V ..o...A :.5 A :.V ",
"V A ..A ..A V A :.5 A :.| 8 p % & s _ f.g.h.h.f.e       *.h.d.e.e.e.e.e.e.e.r.$.      . u.K j i * a ; V o.V V ..o...A :.; A :.V ",
"V A ..A ..A V A :.; A :.o.4 p % * s _ y.&.g.h.h.$.      y h.u.                          w.C j a & 6 ; V o.A V | o.o.A :.5 A :.V ",
"V V | ..| V V A :.5 A :.o.4 p & * s ] y.  &.g.h.$.      y h.i.                          e.C j i - 6 ; V o.A V | o.o.A :.5 A :.A ",
"V V A | A V V A :.5 A :.o.8 p & & s _ y.    &.g.$.      y h.u.                          e.C h 2 % 2 ; V o.A V A o.o.A 2.5 A :.A ",
"V V V A V V V A :.5 A :.o.8 i $ * s ) y.  .   =.$.  . . u h.u.        -.u.u.u.y.u.y.u.u.d.C s 6 # 2 3 V o.A V A o.o.A :.5 A :.| ",
"V V V V V V V A :.5 A :.o.4 i $ - s _ g.a.a.a.a.s.a.a.a.s.h.i.        y.h.h.h.h.h.h.h.h.h.x s > = 1 3 V o.| V A o.o.A :.5 A :...",
"V V V V V V A A :.5 A :.o.4 , $ & s _ h.h.h.h.h.h.h.h.h.h.h.u.        t.h.h.h.h.h.h.h.h.h.C h 2 = 7 ; V o.| V V ..o.A :.5 A :...",
"A V V V V V A A :.5 A :...4 , % % s _ h.h.h.h.h.h.h.h.h.h.h.u.        t.h.h.h.h.h.h.h.h.h.c s 6 % 1 3 V o...V V ..o.A :.5 A :...",
"A V V V V V | A :.5 A :...7 i $ & s _ h.h.h.h.h.h.h.h.h.h.h.p.u u u u i.h.h.h.h.h.h.h.h.h.x s > % 7 7 V ....V V | o.A :.5 A :.A ",
"..A V V V A | A :.5 A :.| 4 i % $ s O.h.h.h.h.h.h.h.h.h.h.h.h.h.h.h.h.h.h.h.h.h.h.h.h.h.h.x s 2 % 1 0 V ..o.V V | o.A :.5 A :.A ",
"..A V V V A ..A :.5 A :.A 4 2 % % s } h.h.h.h.h.h.h.h.h.h.h.h.h.h.h.h.h.h.h.h.h.h.h.h.h.h.z p 6 % 6 0 V | o.A V A ..A :.5 A :.V ",
"..| A V A | ..A :.; A :.V 4 , % # s O.h.h.h.h.h.h.h.h.h.h.h.h.h.h.h.h.h.h.h.h.h.h.h.h.h.h.z h 6 % 6 0 V | o.A V A ..A :.5 A :.V ",
"....A A A ..| A :.5 V :.V 4 2 # # s +.h.h.h.h.h.h.h.h.h.h.h.h.h.h.h.h.h.h.h.h.h.h.h.h.h.h.K p p % d r V A o.A V A | A :.5 A :.V ",
"| ..| A | ..A A :.5 A 2.V 3 , # # h ` <.<.>.>.>.1.1.>.>.1.1.,.,.,.3.3.3.4.5.5.6.6.7.8.8.9.P h d * 6 r V A o.| V V | A :.5 A :.V ",
"A ....| ....A A :.; A :.V 4 , # # f S S S k k S S S S S F S F G H G G G F H J J L I I U ' X.z 2 - 6 w V A o.| A V A A :.5 A :.V ",
"A ....| ....V A :.; A :.V 4 , # X # # # o $ $ % # $ # $ $ & $ $ & $ $ & $ & & & & $ $ : & : > * 1 6 r V A o...A V A A :.5 A :.V ",
"V ..o.o.o...V A :.5 A :.A 3 > 2 & & % % % % - # = $ - = % % % = = % = % - = = - - = - - ; ; ; ; 6 6 r V V o...A V A A :.5 A :.V ",
"V | o.o.o...V A :.5 A :.A 1 - 1 < 1 1 1 > 1 > 1 1 1 2 > 1 2 2 2 2 2 2 2 2 6 6 a 6 v v f 8 v v v v 1 t V V ..o.| V V A :.5 A :.V ",
"V A ..o.o...V A :.5 A :.| t O O + O O O o O O X X X O X + o + + o o X X o o o o o o o o o o o o o + ! V V ..o.| A V A :.5 A :.V ",
"V A ..o.o.| V A :.5 A :...Z V V V V V ..o.V V V V A :.; A :.A ..o.A :.5 A :.| o.o.o.| A :.5 A :.V o.V V V | o...A V A :.5 A :.A ",
"V V | o...| V A :.5 A :.o.A V V V V A o...V V V V A :.5 V :...o.o.A :.; A :.| o.o...A A :.5 A :.V o.V V V | o...| V A :.5 A :.A ",
"V V A ....A V A :.5 A :.o.| V V V V | o...V V | V A :.5 A :.o.o.o.A :.5 A :.A ..o...A A :.5 A :.V o.A V V A ..o.| A A :.5 A :.| ",
"V V A ..| A V A :.5 A :.....A V V V ..o.| V V | V A :.5 A :.o.o.o.A :.5 A :.A ..o.W V A :.5 A :.V o.A V V A | o...A A :.5 A :.| ",
"V V V | | V V A :.5 A :...o.A V V A ..o.V V V ..V A :.3 A :.o.o.o.A :.5 A :.V | o.A V A :.5 A :.V o.A V V V | o...A A :.5 A :...",
"V V V A A V V A :.5 A :.| o...A V A o.o.V V V ..V A :.5 A :.o.o.o.A :.5 A :.V A | V V A :.5 A :.V o.A V V V A ..o.A A :.5 A :...",
"A V V V V V A A :.5 A :.V ..o...A o.o...V V V ..V A :.5 A :.o.o.o.A :.5 A :.V V A V V A :.5 A :.V ..| V V V A | o...A :.5 A :.o.",
"A V V V V V A A :.5 A :.V | o.o.o.o.o.| V V V o.V A :.5 A :.o.o...A :.5 A :.V V V V V A :.5 A :.V ....V V V V | o...A :.5 A :.o.",
"| V V V V V ..A :.5 A :.V V o.o.o.o...V V V | o.V A :.5 A :.o.o...A :.5 A :.V V V V V A :.5 A :.V | ..A V V V A ....A :.5 A :.o.",
"| A V V V A ..A :.5 A :.V V | ..o...| V V V ..o.V A :.5 A :.o...| A :.5 A :.V V V V V A :.5 A :.V | o.A V V V V | | A :.5 A :.o.",
"..A V V V A ..A :.5 A :.V V V | ..| V V V V ..o.V A :.5 A :.o...| A :.5 A :.V V V V V A :.5 A :.V V o.A V V V V V A A :.5 A :.o.",
"..| V V V A ..A :.5 A :.V V V V | V V V V ..o.o.| A :.5 A :...| V A :.5 A :.V V V V V A :.5 A :.| V o.| V V V V V V A :.5 A :.o.",
"| | | | | | | A :.5 A :.| V V V V V V V | | | | | A :.5 A :.| V V A :.5 A :.| V V V | A :.5 A :.| V | | V V V V V V A :.5 A :.| "
};
