/* XPM */
static char *_613376268048[] = {
/* columns rows colors chars-per-pixel */
"64 64 167 2 ",
"   c #010102",
".  c #060708",
"X  c #07080A",
"o  c #0A0B0B",
"O  c #0F1010",
"+  c #15181B",
"@  c #181A1D",
"#  c #131619",
"$  c #191D21",
"%  c #1E2428",
"&  c #202123",
"*  c #282A2C",
"=  c #2E3235",
"-  c #2B3339",
";  c #33393E",
":  c #393B3C",
">  c #3D4145",
",  c #3C444B",
"<  c #3F4953",
"1  c #424446",
"2  c #43474B",
"3  c #4A4C4E",
"4  c #444A4F",
"5  c #414B54",
"6  c #434E58",
"7  c #4F5256",
"8  c #495159",
"9  c #53565A",
"0  c #52585A",
"q  c #555557",
"w  c #4F5E6C",
"e  c #465564",
"r  c #505A63",
"t  c #535E6A",
"y  c #5F6467",
"u  c #55606A",
"i  c #5D656E",
"p  c #567F67",
"a  c #566370",
"s  c #596672",
"d  c #5F6C76",
"f  c #5B6E7F",
"g  c #63666A",
"h  c #67696B",
"j  c #69696D",
"k  c #636B74",
"l  c #6A6F73",
"z  c #626E79",
"x  c #6D7174",
"c  c #67727D",
"v  c #6E777E",
"b  c #717478",
"n  c #029D35",
"m  c #1AA437",
"M  c #198F47",
"N  c #279D41",
"B  c #3EA946",
"V  c #32AB64",
"C  c #62BD5B",
"Z  c #4D8068",
"A  c #649D70",
"S  c #667481",
"D  c #6E7985",
"F  c #6C7B89",
"G  c #6B7783",
"H  c #757D85",
"J  c #747E8B",
"K  c #788187",
"L  c #75828E",
"P  c #7B838B",
"I  c #78898E",
"U  c #758391",
"Y  c #7B8793",
"T  c #7C8995",
"R  c #7E8B99",
"E  c #84898E",
"W  c #88898B",
"Q  c #828A94",
"!  c #838D99",
"~  c #888D99",
"^  c #8B9297",
"/  c #84919C",
"(  c #8C949D",
")  c #8F989F",
"_  c #90979C",
"`  c #969A9E",
"'  c #82A996",
"]  c #8694A0",
"[  c #8995A1",
"{  c #8E99A3",
"}  c #8F9CA8",
"|  c #939BA4",
" . c #9E9FA2",
".. c #939EAA",
"X. c #999BA8",
"o. c #8DA8A2",
"O. c #9DADA3",
"+. c #94A1AC",
"@. c #9BA3AD",
"#. c #9CA6B1",
"$. c #9CA8B1",
"%. c #9DA9B8",
"&. c #A2A4A4",
"*. c #A9ABAF",
"=. c #A3A6AC",
"-. c #A2A6B1",
";. c #A3ABB4",
":. c #ABADB4",
">. c #A5AFB9",
",. c #ABAFBA",
"<. c #AAB1B5",
"1. c #A6B2BA",
"2. c #ABB3BB",
"3. c #B3B4B5",
"4. c #B1B4BD",
"5. c #B5BABF",
"6. c #BBBBBD",
"7. c #99D0B1",
"8. c #A5CAAD",
"9. c #ACB6C0",
"0. c #AEB8C1",
"q. c #B4B6C2",
"w. c #B4BCC4",
"e. c #B9BEC4",
"r. c #B9BEC9",
"t. c #B5BCC8",
"y. c #BBC1C5",
"u. c #BCC3CB",
"i. c #BFC9CC",
"p. c #BFC5D0",
"a. c #C2C3C3",
"s. c #C7CAC6",
"d. c #C1C6CD",
"f. c #C4C9CD",
"g. c #CCCCCD",
"h. c #D0D8C9",
"j. c #C3C7D0",
"k. c #C5CBD3",
"l. c #CACDD4",
"z. c #CBCFD8",
"x. c #CED2D5",
"c. c #CDD2DA",
"v. c #D3D5D7",
"b. c #D2D4DD",
"n. c #D6DADD",
"m. c #DADBDD",
"M. c #E0DEDF",
"N. c #E0E2DF",
"B. c #D5D7E1",
"V. c #D6DAE1",
"C. c #DADCE4",
"Z. c #DEDFE9",
"A. c #E2DFE3",
"S. c #DEE1E6",
"D. c #DEE3E9",
"F. c #E2E3E6",
"G. c #E3E4EB",
"H. c #E6E9EC",
"J. c #EAEAEC",
"K. c #ECECF2",
"L. c #F0EFF5",
"P. c #EEF0F4",
"I. c #F3F3F5",
"U. c #F5F5F9",
"Y. c #F7F8FB",
"T. c #FBFCFD",
"R. c None",
/* pixels */
"R.R.R.R.R.R.R.R.R.R.R.R.R.R.R.R.R.R.R.R.R.R.R.R.R.R.R.R.R.R.R.R.R.R.R.R.R.R.R.R.R.R.R.R.R.R.R.R.R.R.R.R.R.R.R.R.R.R.R.R.R.R.R.R.",
"R.R.R.R.R.R.R.R.R.R.R.R.R.R.R.R.R.R.R.R.R.R.R.R.R.R.R.R.R.R.R.R.R.R.R.R.R.R.R.R.R.R.R.R.R.R.R.R.R.R.R.R.R.R.R.R.R.R.R.R.R.R.R.R.",
"R.R.R.R.R.R.R.R.R.R.R.R.R.R.R.R.R.R.R.R.R.R.R.R.R.R.R.R.R.R.R.R.R.R.R.R.R.R.R.R.R.R.R.R.R.R.R.R.R.R.R.R.R.R.R.R.R.R.R.R.R.R.R.R.",
"R.R.R.R.R.R.R.R.R.R.R.R.R.R.R.R.R.R.R.R.R.R.R.R.R.R.R.R.R.R.R.R.R.R.R.R.R.R.R.R.R.R.R.R.R.R.R.R.R.R.R.R.R.R.R.R.R.R.R.R.R.R.R.R.",
"R.R.R.R.R.R.R.R.R.R.R.R.R.R.R.R.R.R.R.R.R.R.R.R.R.R.R.R.R.R.R.R.R.R.R.R.R.R.R.R.R.R.R.R.R.R.R.R.R.R.R.R.R.R.R.R.R.R.R.R.R.R.R.R.",
"R.R.R.R.R.R.R.R.R.R.R.R.R.R.R.R.R.R.R.R.R.R.R.R.R.R.R.R.R.R.R.R.R.R.R.R.R.R.R.R.R.R.R.R.R.R.R.R.R.R.R.R.R.R.R.R.R.R.R.R.R.R.R.R.",
"R.R.R.R.R.R.R.R.R.R.R.R.R.R.R.R.R.R.R.R.R.R.R.R.R.R.R.R.R.R.R.R.R.R.R.R.R.R.R.R.R.R.R.R.R.R.R.R.R.R.R.R.R.R.R.R.R.R.R.R.R.R.R.R.",
"R.R.R.R.R.R.R.R.R.R.R.R.R.R.R.R.R.R.R.R.R.R.R.R.R.R.R.R.R.R.R.R.R.R.R.R.R.R.R.R.R.R.R.R.R.R.R.R.R.R.R.R.R.R.R.R.R.R.R.R.R.R.R.R.",
"R.R.R.R.R.R.R.R.R.R.R.R.R.R.R.R.R.R.R.R.R.R.R.R.R.R.R.R.R.R.R.R.R.R.R.R.R.R.R.R.R.R.R.R.R.R.R.R.R.R.R.R.R.R.R.R.R.R.R.R.R.R.R.R.",
"R.R.R.R.R.R.R.R.R.R.R.R.R.R.R.R.R.R.R.R.R.R.R.R.R.R.R.R.R.R.R.R.R.R.R.R.R.R.R.R.R.R.R.R.R.R.R.R.R.R.R.R.R.R.R.R.R.R.R.R.R.R.R.R.",
"R.R.R.R.R.R.R.R.R.R.R.R.R.R.R.R.R.R.R.R.R.R.R.R.R.R.R.R.R.R.R.R.R.R.R.R.R.R.R.R.R.R.R.R.R.R.R.R.R.R.R.R.R.R.R.R.R.R.R.R.R.R.R.R.",
"R.R.R.R.R.R.R.R.R.R.R.R.R.R.R.R.R.R.R.R.R.R.R.R.R.R.R.R.R.R.R.R.R.R.R.R.R.R.R.R.R.R.R.R.R.R.R.R.R.R.R.R.R.R.R.R.R.R.R.R.R.R.R.R.",
"R.R.R.R.R.R.R.R.R.R.R.R.R.R.R.R.R.R.R.R.R.R.R.R.R.R.R.R.R.R.R.R.R.R.R.R.R.R.R.R.R.R.R.R.R.R.R.R.R.R.R.R.R.R.R.R.R.R.R.R.R.R.R.R.",
"R.R.R.R.R.R.R.R.R.R.R.R.R.R.R.R.R.R.R.R.R.R.R.R.R.R.R.R.R.R.R.R.R.R.R.R.R.R.R.R.R.R.R.R.R.R.R.R.R.R.R.R.R.R.R.R.R.R.R.R.R.R.R.R.",
"R.R.R.R.R.R.R.R.R.R.R.R.R.R.R.R.R.R.R.R.R.R.R.R.R.R.R.R.R.R.R.R.R.R.R.R.R.R.R.R.R.R.R.R.R.R.R.R.R.R.R.R.R.R.R.R.R.R.R.R.R.R.R.R.",
"R.R.R.R.R.R.R.R.R.R.R.R.R.R.R.R.R.R.R.R.R.R.R.R.R.R.R.R.R.R.R.R.R.R.R.R.R.R.R.R.R.R.R.R.R.R.R.R.R.R.R.R.R.R.R.R.R.R.R.R.R.R.R.R.",
"R.R.R.R.R.R.R.R.R.R.R.R.R.R.R.R.R.R.R.R.R.R.R.R.R.R.R.R.R.R.R.R.R.1.R.R.R.R.R.R.R.R.R.R.R.R.R.R.R.R.R.R.R.R.R.R.R.R.R.R.R.R.R.R.",
"R.R.R.R.R.R.R.R.R.R.R.R.R.R.R.R.R.R.R.R.R.R.R.R.R.R.R.R.R.u.c.G.H.H.D.c.p.r.R.R.R.R.R.R.R.R.R.R.R.R.R.R.R.R.R.R.R.R.R.R.R.R.R.R.",
"R.R.R.R.R.R.R.R.R.R.R.R.R.R.R.R.R.R.R.R.R.R.R.R.R.R.R.u.G.T.T.T.T.T.T.U.G.C.z.r.R.R.R.R.R.R.R.R.R.R.R.R.R.R.R.R.R.R.R.R.R.R.R.R.",
"R.R.R.R.R.R.R.R.R.R.R.R.R.R.R.R.R.R.R.R.R.R.R.R.R.R.x.T.T.T.T.T.T.T.U.L.K.G.B.z.p.R.R.R.R.R.R.R.R.R.R.R.R.R.R.R.R.R.R.R.R.R.R.R.",
"R.R.R.R.R.R.R.R.R.R.R.R.R.R.R.R.R.R.R.R.R.R.R.R.R.x.T.T.T.Y.Y.Y.U.U.K.K.K.Z.B.c.z.k.R.R.R.R.R.R.R.R.R.R.R.R.R.R.R.R.R.R.R.R.R.R.",
"R.R.R.R.R.R.R.R.R.R.R.R.R.R.R.R.R.R.R.R.R.R.R.R.e.I.T.T.Y.Y.U.I.I.K.K.G.Z.C.B.B.z.k.u.R.R.R.R.R.R.R.R.R.R.R.R.R.R.R.R.R.R.R.R.R.",
"R.R.R.R.R.R.R.R.R.R.R.R.R.R.R.R.R.R.R.R.R.R.R.-.C.Y.I.I.I.Y.I.I.L.K.G.G.Z.C.B.B.z.k.k.9.R.R.R.R.R.R.R.R.R.R.R.R.R.R.R.R.R.R.R.R.",
"R.R.R.R.R.R.R.R.R.R.R.R.R.R.R.R.R.R.R.R.R.R.R.y.F.J.L.I.U.Y.Y.L.K.G.G.Z.C.C.B.B.z.k.j.u.R.R.R.R.R.R.R.R.R.R.R.R.R.R.R.R.R.R.R.R.",
"R.R.R.R.R.R.R.R.R.R.R.R.R.R.R.R.R.R.R.R.R.R.R.g.C.J.L.I.U.T.T.I.K.Z.Z.Z.B.B.b.z.z.k.j.k.;.R.R.R.R.R.R.R.R.R.R.R.R.R.R.R.R.R.R.R.",
"R.R.R.R.R.R.R.R.R.R.R.R.R.R.R.R.R.R.R.R.R.R.*.v.m.J.P.Y.T.T.U.I.K.Z.Z.B.B.B.b.z.k.k.p.p.0.R.R.R.R.R.R.R.R.R.R.R.R.R.R.R.R.R.R.R.",
"R.R.R.R.R.R.R.R.R.R.R.R.R.R.R.R.R.R.R.R.R.R.3.g.M.J.I.Y.T.T.Y.L.G.Z.B.B.B.z.z.z.k.j.i.u.w.R.R.R.R.R.R.R.R.R.R.R.R.R.R.R.R.R.R.R.",
"R.R.R.R.R.R.R.R.R.R.R.R.R.R.R.R.R.R.R.R.R.R.3.v.M.N.I.I.T.T.I.J.Z.Z.B.B.z.z.k.k.j.p.u.u.w.R.R.R.R.R.R.R.R.R.R.R.R.R.R.R.R.R.R.R.",
"R.R.R.R.R.R.R.R.R.R.R.R.R.R.R.R.R.R.R.R.R.R.3.g.v.N.J.U.T.T.I.J.A.B.b.z.z.z.j.p.i.u.u.u.w.R.R.R.R.R.R.R.R.R.R.R.R.R.R.R.R.R.R.R.",
"R.R.R.R.R.R.R.R.R.R.R.R.R.R.R.R.R.R.R.R.R.R.*.g.m.N.J.I.T.I.L.N.b.l.j.j.r.j.p.r.i.y.t.w.0.R.R.R.R.R.R.R.R.R.R.R.R.R.R.R.R.R.R.R.",
"R.R.R.R.R.R.R.R.R.R.R.R.R.R.R.R.R.R.R.R.R.R.&.g.v.M.M.h.s.a.a.a.e.6.6.6.3.<.,.@.&.5.w.w.2.R.R.R.R.R.R.R.R.R.R.R.R.R.R.R.R.R.R.R.",
"R.R.R.R.R.R.R.R.R.R.R.R.R.R.R.R.R.R.R.R.R.R.W 6.&.A B C N.J.J.J.J.A.F.F.F.C.V.8.m N Z | _ R.R.R.R.R.R.R.R.R.R.R.R.R.R.R.R.R.R.R.",
"R.R.R.R.R.R.R.R.R.R.R.R.R.R.R.R.R.R.R.R.R.R.R.&.=.Z n 7.J.F.A.m.z.l.j.j.d.r.r.d.V M I <.R.R.R.R.R.R.R.R.R.R.R.R.R.R.R.R.R.R.R.R.",
"R.R.R.R.R.R.R.R.R.R.R.R.R.R.R.R.R.R.R.R.R.R.R.` f.:.' v.m.C.m.z.d.r.q.q.q.,.,.,.o.^ >._ R.R.R.R.R.R.R.R.R.R.R.R.R.R.R.R.R.R.R.R.",
"R.R.R.R.R.R.R.R.R.R.R.R.R.R.R.R.R.R.R.R.R.R.R.R.<.8.a.l.v.v.l.f.r.q.,.q.,.;.:.-.=.@.| R.R.R.R.R.R.R.R.R.R.R.R.R.R.R.R.R.R.R.R.R.",
"R.R.R.R.R.R.R.R.R.R.R.R.R.R.R.R.R.R.R.R.R.R.R.R.j q.e.e.f.f.d.e.q.,.,.-.-.-.-.@.@.| g R.R.R.R.R.R.R.R.R.R.R.R.R.R.R.R.R.R.R.R.R.",
"R.R.R.R.R.R.R.R.R.R.R.R.R.R.R.R.R.R.R.R.R.R.R.R.R.x :.6.8.r.r.q.:.-.@.-.X.X...| ( y R.R.R.R.R.R.R.R.R.R.R.R.R.R.R.R.R.R.R.R.R.R.",
"R.R.R.R.R.R.R.R.R.R.R.R.R.R.R.R.R.R.R.R.R.R.R.R.R.R.0  .<.>.:.*.X.X.X.| X.| | Q 9 R.R.R.R.R.R.R.R.R.R.R.R.R.R.R.R.R.R.R.R.R.R.R.",
"R.R.R.R.R.R.R.R.R.R.R.R.R.R.R.R.R.R.R.R.R.R.R.R.R.R.R.R.l ) | ( ~ ~ ~ ~ ~ Q g R.R.R.R.R.R.R.R.R.R.R.R.R.R.R.R.R.R.R.R.R.R.R.R.R.",
"R.R.R.R.R.R.R.R.R.R.R.R.R.R.R.R.R.R.R.R.R.R.R.R.R.R.R.| 2.Y @.2.,.;.-.#.{ [ H R.R.R.R.R.R.R.R.R.R.R.R.R.R.R.R.R.R.R.R.R.R.R.R.R.",
"R.R.R.R.R.R.R.R.R.R.R.R.R.R.R.R.R.R.R.R.R.R.R.R.R.R.@.D.y.[ 3.n.J.J.A.b.;.+.K./ R.R.R.R.R.R.R.R.R.R.R.R.R.R.R.R.R.R.R.R.R.R.R.R.",
"R.R.R.R.R.R.R.R.R.R.R.R.R.R.R.R.R.R.R.R.R.R.R.R.R.0.S.i.{ +.w.i.d.r.e.e.;.R V.D.R.R.R.R.R.R.R.R.R.R.R.R.R.R.R.R.R.R.R.R.R.R.R.R.",
"R.R.R.R.R.R.R.R.R.R.R.R.R.R.R.R.R.R.R.R.R.R.R.9.z.V.j.P L @.E x b x b E @.Y ;.G.b.R.R.R.R.R.R.R.R.R.R.R.R.R.R.R.R.R.R.R.R.R.R.R.",
"R.R.R.R.R.R.R.R.R.R.R.R.R.R.R.R.R.R.R.R.R.U [ 0.x.k.( , +.x o X         1 R T j.S.k.| R.R.R.R.R.R.R.R.R.R.R.R.R.R.R.R.R.R.R.R.R.",
"R.R.R.R.R.R.R.R.R.R.R.R.R.R.R.R.R.R.R.R.e S < i 2.#.= Y H o . . o o X X O H z ;.i.i.%.T R.R.R.R.R.R.R.R.R.R.R.R.R.R.R.R.R.R.R.R.",
"R.R.R.R.R.R.R.R.R.R.R.R.R.R.R.R.R.R.R.R.k.1.; = { s R.3 * 7 g j q 3 q > & 2 D Q 0.H z F R.R.R.R.R.R.R.R.R.R.R.R.R.R.R.R.R.R.R.R.",
"R.R.R.R.R.R.R.R.R.R.R.R.R.R.R.R.R.R.R.H.T.G.$.L Y R.R.% y.T.T.U.C.C.Y.K.j.J 9 r 1.- , F d R.R.R.R.R.R.R.R.R.R.R.R.R.R.R.R.R.R.R.",
"R.R.R.R.R.R.R.R.R.R.R.R.R.R.R.R.R.R.n.Y.U.n.1.F R.R.R.1.T.Y.T.Y.Y.U.L.K.C.t.c R.] G ( p.k.R.R.R.R.R.R.R.R.R.R.R.R.R.R.R.R.R.R.R.",
"R.R.R.R.R.R.R.R.R.R.R.R.R.R.R.R.R.R.T.F.m.i.+.R.R.R.T D.P.Y.T.Y.U.U.L.G.B.r...> 6 U w.D.U.5.R.R.R.R.R.R.R.R.R.R.R.R.R.R.R.R.R.R.",
"R.R.R.R.R.R.R.R.R.R.R.R.R.R.R.R.R.u.T.c.;.$.d R.R.R.#.G.P.Y.T.T.U.U.U.K.B.r.%.z R.L 5.G.K.n.R.R.R.R.R.R.R.R.R.R.R.R.R.R.R.R.R.R.",
"R.R.R.R.R.R.R.R.R.R.R.R.R.R.R.R.R.C.F.k c c R.R.R.s R 0.c.H.I.T.T.T.U.G.k.%.R , R.c 1.f.m.U.| R.R.R.R.R.R.R.R.R.R.R.R.R.R.R.R.R.",
"R.R.R.R.R.R.R.R.R.R.R.R.R.R.R.R.R.=.*   . R.R.R.R.R I / $.2.y.i.k.j.t.-./ F I R s R./ 1.D.T.;.R.R.R.R.R.R.R.R.R.R.R.R.R.R.R.R.R.",
"R.R.R.R.R.R.R.R.R.R.R.R.R.R.R.R.R.@       R.R.R.R.U ) u Y @.@.+.| { | [ F , E 2.d R.r c x.T.;.R.R.R.R.R.R.R.R.R.R.R.R.R.R.R.R.R.",
"R.R.R.R.R.R.R.R.R.R.R.R.R.R.R.R.R.    R.  R.R.R.R.S +.^ ; K ) ( ! / { L @ 2 e.{ R.R.    1 S.@.R.R.R.R.R.R.R.R.R.R.R.R.R.R.R.R.R.",
"R.R.R.R.R.R.R.R.R.R.R.R.R.R.R.R.R.      R.R.R.R.R.s / 2.P , K ! T R Y $ ; w.2.T R.R.      : v R.R.R.R.R.R.R.R.R.R.R.R.R.R.R.R.R.",
"R.R.R.R.R.R.R.R.R.R.R.R.R.R.R.R.R.R.R.R.R.R.R.R.R.R.[ $.>.Q u D U J - 5 >.2.;.k R.R.        R.R.R.R.R.R.R.R.R.R.R.R.R.R.R.R.R.R.",
"R.R.R.R.R.R.R.R.R.R.R.R.R.R.R.R.R.R.R.R.R.R.R.R.R.R.U ;.>.1.T $ R.R.z ;.1.>...R.R.R.R.      R.R.R.R.R.R.R.R.R.R.R.R.R.R.R.R.R.R.",
"R.R.R.R.R.R.R.R.R.R.R.R.R.R.R.R.R.R.R.R.R.R.R.R.R.R.J +.! G u R.R.R.t Y ( | / R.R.R.R.R.R.R.R.R.R.R.R.R.R.R.R.R.R.R.R.R.R.R.R.R.",
"R.R.R.R.R.R.R.R.R.R.R.R.R.R.R.R.R.R.R.R.R.R.R.R.R.R.] x.n.e.] R.R.R.F | 4.l.e.R.R.R.R.R.R.R.R.R.R.R.R.R.R.R.R.R.R.R.R.R.R.R.R.R.",
"R.R.R.R.R.R.R.R.R.R.R.R.R.R.R.R.R.R.R.R.R.R.R.R.R.R.+.y.q.-.U a R.R.U #.a.k.w.S R.R.R.R.R.R.R.R.R.R.R.R.R.R.R.R.R.R.R.R.R.R.R.R.",
"R.R.R.R.R.R.R.R.R.R.R.R.R.R.R.R.R.R.R.R.R.R.R.R.R.S l.G.x.k.+.w R.t w.n.d.y.$.F R.R.R.R.R.R.R.R.R.R.R.R.R.R.R.R.R.R.R.R.R.R.R.R.",
"R.R.R.R.R.R.R.R.R.R.R.R.R.R.R.R.R.R.R.R.R.R.R.R.R.s 0.b.y.q.] , R.r n.S.j.2.+.F R.R.R.R.R.R.R.R.R.R.R.R.R.R.R.R.R.R.R.R.R.R.R.R.",
"R.R.R.R.R.R.R.R.R.R.R.R.R.R.R.R.R.R.R.R.R.R.R.R.R.R., s d 8 $ R.R.R.4 ! +./ S 6 R.R.R.R.R.R.R.R.R.R.R.R.R.R.R.R.R.R.R.R.R.R.R.R.",
"R.R.R.R.R.R.R.R.R.R.R.R.R.R.R.R.R.R.R.R.R.R.R.R.R.R.R.      R.R.R.R.  . + # . R.R.R.R.R.R.R.R.R.R.R.R.R.R.R.R.R.R.R.R.R.R.R.R.R."
};
