/* XPM */
static char *_613376273353[] = {
/* columns rows colors chars-per-pixel */
"64 64 221 2 ",
"   c #170A06",
".  c #190B05",
"X  c #180D08",
"o  c #1F160F",
"O  c #0D0E12",
"+  c #181616",
"@  c #240E05",
"#  c #280F03",
"$  c #261106",
"%  c #2B1305",
"&  c #251309",
"*  c #2B150A",
"=  c #2A1909",
"-  c #2D190D",
";  c #311604",
":  c #341904",
">  c #3E1C07",
",  c #321708",
"<  c #331A0A",
"1  c #3A1D0A",
"2  c #221A15",
"3  c #2C1C12",
"4  c #321D12",
"5  c #28200C",
"6  c #3D200C",
"7  c #2E2116",
"8  c #26211E",
"9  c #342115",
"0  c #3B2315",
"q  c #382C14",
"w  c #35241B",
"e  c #3B261A",
"r  c #3D291D",
"t  c #171A25",
"y  c #1B1F2C",
"u  c #2A2621",
"i  c #2F2823",
"p  c #332A24",
"a  c #3B2B23",
"s  c #352E2B",
"d  c #3C312C",
"f  c #242731",
"g  c #2A3033",
"h  c #3C3636",
"j  c #401D06",
"k  c #421E09",
"l  c #422106",
"z  c #4D2302",
"x  c #43220B",
"c  c #4A260C",
"v  c #4C280E",
"b  c #532603",
"n  c #572A07",
"m  c #5B2A04",
"M  c #5A320E",
"N  c #442511",
"B  c #4E2B12",
"V  c #47291B",
"C  c #432B1C",
"Z  c #522F18",
"A  c #403018",
"S  c #483818",
"D  c #5B3413",
"F  c #52321D",
"G  c #543C1C",
"H  c #612E06",
"J  c #663106",
"K  c #693307",
"L  c #673208",
"P  c #6A340A",
"I  c #6D380D",
"U  c #643917",
"Y  c #6C3B14",
"T  c #723E18",
"R  c #432E21",
"E  c #4C3324",
"W  c #42342D",
"Q  c #4F392A",
"!  c #533523",
"~  c #543B2B",
"^  c #5B3B28",
"/  c #463933",
"(  c #553F30",
")  c #673F2B",
"_  c #613A2D",
"`  c #6D4118",
"'  c #6D4D1B",
"]  c #73431A",
"[  c #754819",
"{  c #6F501F",
"}  c #74521E",
"|  c #5C4020",
" . c #48423D",
".. c #5E4031",
"X. c #6C4824",
"o. c #6B432F",
"O. c #774624",
"+. c #744C28",
"@. c #735220",
"#. c #795520",
"$. c #7D5822",
"%. c #694A39",
"&. c #754935",
"*. c #7E503F",
"=. c #323943",
"-. c #3D4446",
";. c #4E4B47",
":. c #58514B",
">. c #444F51",
",. c #4A525A",
"<. c #5C5955",
"1. c #774B40",
"2. c #6B5345",
"3. c #7C5947",
"4. c #655A54",
"5. c #72645B",
"6. c #576162",
"7. c #6E7776",
"8. c #757A77",
"9. c #825D25",
"0. c #855F28",
"q. c #854D3A",
"w. c #84533B",
"e. c #905C34",
"r. c #8F6126",
"t. c #8E652C",
"y. c #916329",
"u. c #8F6730",
"i. c #936C35",
"p. c #99753E",
"a. c #865843",
"s. c #855C4B",
"d. c #965643",
"f. c #8C5E54",
"g. c #A35E4A",
"h. c #89614C",
"j. c #94634E",
"k. c #9C6449",
"l. c #9B7A44",
"z. c #87685A",
"x. c #976A5A",
"c. c #9D745E",
"v. c #A8694B",
"b. c #B3714F",
"n. c #A36A53",
"m. c #A76B5A",
"M. c #B8725A",
"N. c #847269",
"B. c #987566",
"V. c #847671",
"C. c #B76E66",
"Z. c #A97766",
"A. c #B87C65",
"S. c #9F804A",
"D. c #A0804C",
"F. c #8D837C",
"G. c #BB8369",
"H. c #A78675",
"J. c #BD8573",
"K. c #B7917D",
"L. c #C8876C",
"P. c #C48974",
"I. c #CA8A74",
"U. c #CB8A76",
"Y. c #C38A7A",
"T. c #C1907F",
"R. c #D8967C",
"E. c #7C8989",
"W. c #838A85",
"Q. c #88918D",
"!. c #97938D",
"~. c #8A9593",
"^. c #8C9693",
"/. c #9E9995",
"(. c #939C9B",
"). c #B09085",
"_. c #B99789",
"`. c #98A19D",
"'. c #BCA195",
"]. c #9AA6A3",
"[. c #9AA9A7",
"{. c #9EADAB",
"}. c #9DACB1",
"|. c #A6AAA5",
" X c #A1AFAC",
".X c #A2B1AE",
"XX c #AAB1AD",
"oX c #B3B4AF",
"OX c #A4B3B1",
"+X c #A9B5B3",
"@X c #A7B8B5",
"#X c #ACB9B6",
"$X c #A5B6B9",
"%X c #A7B8BD",
"&X c #A9BABE",
"*X c #B0B7B3",
"=X c #C69887",
"-X c #DA9C8A",
";X c #D79993",
":X c #D9A18C",
">X c #C9A496",
",X c #C6A599",
"<X c #D6A894",
"1X c #DDB19B",
"2X c #E3A896",
"3X c #EAB79E",
"4X c #C9B7AF",
"5X c #D9B8AC",
"6X c #E7B7AA",
"7X c #EBB6AB",
"8X c #EBBCAB",
"9X c #EDBCB1",
"0X c #EAC3AF",
"qX c #EEC7B6",
"wX c #F5C9BA",
"eX c #FDD0BC",
"rX c #ABBCC2",
"tX c #F9CDC2",
"yX c #F9D2C5",
"uX c #FBD5C6",
"iX c #FDD7CB",
/* pixels */
"A A A A A A A A A A A A A A A A r A A A A A A A A A A A A A A A A A A A A A A A r q S r S r q A A A A A A A A A A A A A A A A A ",
"X.X.X.X.X.X.X.X.X.X.X.X.X.X.X.X.X.X.X.X.X.X.X.X.X.X.X.X.X.X.X.X.X.X.X.X.X.X.X.X.X.X.X.X.X.X.X.X.X.X.X.X.X.X.X.X.X.X.X.X.X.X.X.X.",
"e.e.e.e.e.e.e.e.e.e.e.e.e.e.e.e.e.e.e.e.u.e.e.e.e.e.e.e.e.e.e.e.e.e.e.e.e.e.e.e.e.e.e.e.u.e.e.e.e.e.e.e.e.e.e.e.e.e.e.e.e.e.e.e.",
"G G G G G G G q G 5 q G G G G G G G G G G G G G G q G 5 q G G G G q G 5 q G G G G G G q G 5 q G G G G G G G G G G G q G 5 q G G ",
"S S X.+.+.+.+.G e.5 G e.| S S S S +.+.S X.S X.S S G e.5 G e.+.S +.G e.5 G e.| S S S | G e.5 G e.S +.S S +.S +.S +.+.G e.5 G e.X.",
"S S X.+.+.+.| G e.5 G e.X.S S S G +.+.S X.S X.S S G e.5 G e.+.S +.G e.5 G e.+.| S | +.G e.5 G e.S +.S S +.S +.S +.+.G e.5 G e.X.",
"S S | +.+.+.G G e.5 G e.+.G S S G +.+.S X.S X.S S G e.5 G e.X.S +.G e.5 G e.+.+.| +.+.G e.5 G e.S +.S S +.S +.S +.+.G e.5 G e.X.",
"G S G X.+.+.G G e.5 G e.+.G S S | +.X.S X.S X.S S G e.5 G e.X.S +.G e.5 G e.+.+.+.+.+.G e.5 G e.S +.S S +.S +.S +.+.G e.5 G e.X.",
"X.S S | +.| S G e.5 G e.+.| S G X.+.X.S X.S X.S S G e.5 G e.X.S +.G e.5 G e.+.+.+.+.+.G e.5 G e.S +.S S +.S +.S X.+.G e.5 G e.G ",
"X.S G S | G S G e.5 G e.+.X.S | +.+.| S X.S X.S S G e.5 G e.| S +.G e.5 G e.+.+.+.+.+.G e.5 G e.S +.S S +.S +.S X.+.G e.5 G e.G ",
"+.G S S G S S G e.5 G e.+.+.| X.+.+.| S X.S X.S S G e.5 G e.| S +.G e.5 G e.+.+.+.+.+.G e.5 G e.S +.S S +.S +.S | +.G e.5 G e.G ",
"+.G S S S S G G e.5 G e.+.+.X.+.+.+.G S X.S X.S S G e.5 G e.S S +.G e.5 G e.+.+.+.+.+.G e.- G e.S +.S S +.S +.S | +.G e.5 G e.S ",
"X.+.S S S G +.G e.5 G e.+./ - 3 - 3 - - < - 3 4 - 9 - 6 6 9 9 7 9 9 w w w p r a p r a d R W W W / / / S +.S +.G S +.G e.5 G e.S ",
"X.+.G S S G +.G e.3 G e.+.~ 0 x N v v v v v v v v v v v B B v v B B B Z Z Z F F F F F F ! ! ! Q ^ E % S +.S +.G S +.G e.5 G e.S ",
"| +.+.S G +.+.G e.5 G e.+.~ v 1 , < , , * , < = = ; = < = - < = < < 6 < < 4 0 9 9 0 0 e r C a R B c = S +.S +.G S +.G e.5 G e.S ",
"G +.+.+.G +.| G e.5 G e.X.E v < - < < = ; < ; < : < < 1 : 6 6 6 < 1 6 6 < 6 6 < 9 0 4 9 e r r 9 6 v ; S +.S +.G S +.G e.5 G e.G ",
"S X.+.+.| +.G G e.5 G e.X.E N < x L H H m H H H H H H J J K K K J J J K J K I K I I I T T ] ] l 1 c % S +.S +.` S +.G e.5 G e.G ",
"S X.+.+.+.+.G G e.5 G e.| E k - k n % ; ; ; % ; ; ; ; ; ; : : : 6 : 6 : : : 6 6 : : ; : ; ; H l 1 v * S +.S +.G S X.G e.5 G e.G ",
"S | X.+.+.+.S G e.5 G e.| E 6 - 1 n @.OXOXOX XXXOX.X X XXX.XXXF.W.`.{. X.X.XOXOXOX.X.X.XXX` J l > c % S +.S +.X.S X.G e.5 G e.X.",
"S G X.+.+.| S G e.5 G e.| E x - 1 b 0.}..X.XOXOXOXOX XOX{.^.8.<. .<.5.7.`..X.X.X.X.X.X X X} m l > c < S +.S +.X.S X.G e.5 G e.X.",
"S S | +.+.G S G e.5 G e.G R x * 1 b 9..X.XOXOX.X.X XOXQ.;.s s h s s p p <.`.@X.X.X.X.X.X X[ m l 1 c = S @.S +.X.S | G e.5 G e.X.",
"S S G +.+.G S G e.5 G e.S R k * : b 9..X.X.X.X.X.XOXQ.d 2 + i i 8 2 + 2 8  .^.OX.X.X.X X X[ m c ; l = S +.S +.+.S | G e.5 G e.X.",
"G S G | G S S G e.5 G e.S V x & < b 9..X.X.X.X.X}.]. .d s 2 3 w 3 & o X o 7 / ^..X.X.X{..X[ m l ; x = S +.S X.+.S S G e.5 G e.X.",
"G S S G S S G G e.5 G e.S C k * 1 z 9. X.X X X.XXX7.h ;./ _ f.x.1.C - q & o 7 ;. X.X.X.XXX] m 6 < c 6 S +.S X.+.G S G e.5 G e.X.",
"G S S S S S G G e.5 G e.S C l & : b $..X X X X.X X<.d 2.B.=X7X1XY.&.+.v.q.E 4 p `..X{..XOX' m 6 < B < S +.S | +.G S G e.5 G e.| ",
"X.S S S S S X.G e.5 G e.S C l & : z $. X{. X X X`.:.4.>X6XyXtX9X;XU.I.L.J.c...w ^..X.X.XXX` b l ; c < S +.S | +.| S G e.5 G e.G ",
"X.S S S S S X.G e.5 G e.S r k & < z #..X X X X X(.;.N.wXuXiXeX8X2X-XR.U.P.J.Z.w 8.@X}.OXOX] b l ; x < S +.S G +.| S G e.5 G e.G ",
"X.G S S S G | G e.5 G e.S N k $ ; z #.{. X{.{.{.(. .5.0XuXiXtX7X2X-XR.L.G.G.c.7 7.@X$X%X@X] m l ; x = S +.S G +.X.G G e.5 G e.S ",
"| G S S S G G G e.5 G e.S e k % ; z }  X X{.{. X].:.2.qXwX5X,X=X-X<XI.P.J.G.h.& E.rX&X$X@X` m l < l < S +.S G +.X.G G e.5 G e.S ",
"G X.S S S X.G G e.5 G e.S q k % = z }  X{.{. X{. XV.N.wX_.B.3.j.U.A.&.^ %.c.*.8 }.rX&X$XOX` b 6 % x 6 S +.S S +.+.| S e.5 G e.S ",
"G X.G S S X.S G e.5 G e.S N k & ; b {  X X{.{.{.XX_.).tX=Xz._ n.3Xv._ _ o.%.h.:.&XrX&X&X$XU m l % l = S +.S S +.+.| G e.5 G e.S ",
"S | G S X.| S G e.5 G e.G 0 k & * z {  X X{. X XXX>X>XuX0X=Xm.;XwXA.o.^ &.n.j.z.rX&X&X&X$XU b l % c 5 S +.S S X.+.X.G e.5 G e.S ",
"S G X.G X.G S G e.5 G e.^ 0 k $ % b X..X.X X.X}.XX_._.iXtX9X9XtX9XU.M.m.A.U.j.F.rX&X&X$X$XD b l % l - S +.S S X.+.X.G e.5 G e.S ",
"S G X.G X.G S G e.5 G e.X.0 k # ; z { .XOXOX X X{.4X>XtXiX9X7X8X7XU.C.L.U.U.s.!.rX&X$XOXOXD b j % x - S +.G S | +.+.G e.5 G e.S ",
"S S | X.| S S G e.5 G e.+.0 k % % z ' .X.X.X X{.{.*X>X9XtX2X7XY.A.q.g.M.L.A.z.XX&X&X@X.XOXD n k % 6 3 S +.G S | +.+.G e.5 G e.G ",
"S S G | G S S G e.5 G e.+.1 k & % b ' +XOX.X X X[.}.!.,X1X=X>X).x.s.j.n.b.j.8.#X$X@X$X$X$XD b 1 $ 6 - S +.G S G +.+.G e.5 G e.G ",
"S S S G S S S G e.5 G e.+.1 k % * l [ XXOX.X.X X}. X/._.K.c.Z.J.C.d.) X.3.2.!.#X@X@X&X&X&XD z 1 $ < 3 S X.G S G +.+.G e.5 G e.| ",
"S S S S S S S G e.5 G e.+.4 k @ % b ' .X.XOXOX X[.[.]._.K.K.<X;XC.d.q.+.%.2.|.#XOXOX&X&X%XM z 1 @ 6 3 S +.| S G +.+.G e.5 G e.X.",
"S S S S S S G G e.5 G e.+.4 > % $ z '  X.XOXOX.X{.{. X)._._.<XT.a.q.k.h.~ 5.*XXXOX@X@X@XOXD b > & < 3 S +.| S S X.+.G e.5 G e.X.",
"G S S S S S G G e.5 G e.X.4 > # $ z ' .X XOX.X X}.}.#X>XH.K._.<XC.x.j.%...(.+X+X.XOX.XOX}.M z > $ 6 7 S +.X.S S X.+.G e.5 G e.X.",
"G S S S S S | G e.5 G e.X.3 j @ % z } OX X.X X.XOX}.*X6XH.z.5.B.s.*.( a 3.@XOXOX}.OXOXOXOXM z 6 @ 6 7 S X.X.S S | +.G e.5 G e.G ",
"X.G S S S G | G e.5 G e.| 4 j $ $ z } +X+X$X$X XW.8.7XqX1XB.2.Q R 4 3 ^ x.Q.OX$X.XOX@XOX XM k > @ 6 w S X.+.S S | +.G e.5 G e.G ",
"X.G S S S G X.G e.5 G e.G 9 > $ $ z } #X(.7.,.=.y f ,XwX6X>XH.h.E N ) e.x.8 -.8.[.@X@XOX XM z 6 & 6 w S | +.G S G X.G e.5 G e.S ",
"X.| G S G | X.G e.5 G e.S 4 > $ $ z } ,.f y + t f t =.'.qX3X<XG.w.&.k.v.n.+ O O g 6.~.OX.XM x 6 & 6 e S | +.G S G X.G e.5 G e.S ",
"X.X.G G G X.| G e.5 G e.S 4 1 @ @ z #.f y y t t y y t f 5.1X:XG.k.k.v.b.*.+ + O + O u >.~.D z 1 & 6 r S G +.G S G | G e.5 G e.S ",
"| X.| G | X.G G e.5 G e.S 4 > @ @ z ] r.r.r.r.r.y.y.t.t.u.t.t.t.t.u.u.i.i.p.p.l.l.l.l.D.S.` z x % 6 a S G +.| S S | G e.5 G e.S ",
"G X.X.| X.X.G G e.5 G e.S 4 > @ $ c H H H H m H H H H H H K J K P J J J K K P I U Y T T X.O.m 1 = 6 a S G +.| G S G G e.5 G e.S ",
"G X.X.| X.X.S G e.- G e.S - > @   @ @ @ . @ @ % # # # # # # # % % % % % % % % % % % % % $ ; : < < 6 a S G +.X.G S G G e.5 G e.S ",
"S X.+.+.+.X.S G e.5 G e.G 3 > > % * $ $ $ $ @ & $ @ % & $ $ $ & & & & & * & & * & & * - * * 3 3 x 6 a S S +.X.G S G G e.5 G e.S ",
"S | +.+.+.X.S G e.5 G e.G 3 * * , , , ; < 1 1 < < 1 1 < 1 1 < 1 > > 1 1 1 1 l x x x N N N N N N N < d S S X.+.| S S G e.5 G e.S ",
"S G X.+.+.X.S G e.5 G e.^ d . . X X       .                     . .     . . . . . . . . X . . . . . W S S X.+.| G S G e.5 G e.S ",
"S G X.+.+.| S G e.5 G e.X.G S S S S S X.+.S S S S G e.3 G e.G X.+.G e.5 G e.| +.+.+.| G e.5 G e.S +.S S S | +.X.G S G e.5 G e.G ",
"S S | +.X.| S G e.5 G e.+.G S S S S G +.X.S S S S G e.5 G e.X.+.+.G e.3 G e.| +.+.X.G G e.5 G e.S } S S S | +.X.| S G e.5 G e.G ",
"S S G X.X.G S G e.5 G e.+.| S S S S | +.X.S S | S G e.5 G e.+.+.+.G e.5 G e.G X.+.X.G G e.5 G e.S +.G S S G X.+.| G G e.5 G e.| ",
"S S G X.| G S G e.5 G e.X.X.G S S S X.+.| S S | S G e.5 G e.+.+.+.G e.5 G e.G X.+.^ S G e.5 G e.S +.G S S G | +.X.G G e.5 G e.| ",
"S S S | | S S G e.5 G e.X.+.G S S G X.+.S S S X.S G e.= G e.+.+.+.G e.5 G e.S | X.G S G e.5 G e.S +.G S S S | +.X.G G e.5 G e.X.",
"S S S G G S S G e.5 G e.| +.X.G S G +.+.S S S X.S G e.5 G e.+.+.+.G e.5 G e.S G | S S G e.5 G e.S +.G S S S G X.+.G G e.5 G e.X.",
"G S S S S S G G e.5 G e.S X.+.X.G +.+.X.S S S X.S G e.5 G e.+.+.+.G e.5 G e.S S G S S G e.5 G e.S X.| S S S G | +.X.G e.5 G e.+.",
"G S S S S S G G e.5 G e.S | +.+.+.+.+.| S S S +.S G e.5 G e.+.+.X.G e.5 G e.S S S S S G e.5 G e.S X.X.S S S S | +.X.G e.5 G e.+.",
"| S S S S S X.G e.5 G e.S S +.+.+.+.X.S S S | +.S G e.5 G e.+.+.X.G e.5 G e.S S S S S G e.5 G e.S | X.G S S S G X.X.G e.5 G e.+.",
"| G S S S G X.G e.5 G e.S S | X.+.X.| S S S X.+.S G e.5 G e.+.X.| G e.5 G e.S S S S S G e.5 G e.S | +.G S S S S | | G e.5 G e.+.",
"X.G S S S G X.G e.5 G e.S S S | X.| S S S S X.+.S G e.5 G e.+.X.| G e.5 G e.S S S S S G e.5 G e.S S +.G S S S S S G G e.5 G e.+.",
"X.| S S S G X.G e.5 G e.S S S S | S S S S X.+.+.| G e.5 G e.X.| S G e.5 G e.S S S S S G e.5 G e.| S +.| S S S S S S G e.5 G e.+.",
"| | | | | | | G e.5 G e.| S S S S S S S | | | | | G e.5 G e.| S S G e.5 G e.| S S S | G e.5 G e.| S | | S S S S S S G e.5 G e.| "
};
