/* XPM */
static char *_613376278752[] = {
/* columns rows colors chars-per-pixel */
"64 64 213 2 ",
"   c #170A06",
".  c #190B05",
"X  c #180C08",
"o  c #240E05",
"O  c #280F03",
"+  c #261106",
"@  c #2B1305",
"#  c #2F1906",
"$  c #261308",
"%  c #2B150A",
"&  c #2D190D",
"*  c #311604",
"=  c #341904",
"-  c #3E1C07",
";  c #321708",
":  c #331A0A",
">  c #3A1D0A",
",  c #2C1C11",
"<  c #321D12",
"1  c #28200C",
"2  c #3D200C",
"3  c #342114",
"4  c #3B2315",
"5  c #382C14",
"6  c #36241B",
"7  c #3B261A",
"8  c #3D291D",
"9  c #2E2323",
"0  c #29282F",
"q  c #312626",
"w  c #3B2B23",
"e  c #352929",
"r  c #3C2D2D",
"t  c #3D302B",
"y  c #2E2D33",
"u  c #342F35",
"i  c #2F3039",
"p  c #323137",
"a  c #35343A",
"s  c #3B373A",
"d  c #39373D",
"f  c #401D06",
"g  c #421E09",
"h  c #422106",
"j  c #4D2302",
"k  c #43220B",
"l  c #4A260C",
"z  c #4C280E",
"x  c #532603",
"c  c #572A07",
"v  c #5B2A04",
"b  c #5A320E",
"n  c #442511",
"m  c #4E2B12",
"M  c #442B1B",
"N  c #522F18",
"B  c #403018",
"V  c #483818",
"C  c #5B3413",
"Z  c #52321D",
"A  c #543C1C",
"S  c #612E06",
"D  c #632F09",
"F  c #663106",
"G  c #693307",
"H  c #673208",
"J  c #6A340A",
"K  c #6D380D",
"L  c #643A15",
"P  c #6C3B14",
"I  c #723E18",
"U  c #452E24",
"Y  c #412E2D",
"T  c #4B3324",
"R  c #42342D",
"E  c #4D352B",
"W  c #533524",
"Q  c #543B2C",
"!  c #443331",
"~  c #4A3433",
"^  c #4A3C39",
"/  c #543635",
"(  c #553C3A",
")  c #5B3D3C",
"_  c #6D4118",
"`  c #6D4D1B",
"'  c #73431A",
"]  c #754819",
"[  c #6F501F",
"{  c #74521E",
"}  c #5C4020",
"|  c #5A423E",
" . c #6C4824",
".. c #774624",
"X. c #744C28",
"o. c #775420",
"O. c #60433E",
"+. c #3D3C43",
"@. c #563D42",
"#. c #4D4143",
"$. c #454349",
"%. c #5C4443",
"&. c #57494B",
"*. c #4F4C50",
"=. c #544C52",
"-. c #585359",
";. c #664944",
":. c #694A46",
">. c #654748",
",. c #6B4B4B",
"<. c #724D4C",
"1. c #78534E",
"2. c #6C4D51",
"3. c #754E51",
"4. c #665657",
"5. c #6C5354",
"6. c #755453",
"7. c #7C5553",
"8. c #79595A",
"9. c #5E5C63",
"0. c #675E65",
"q. c #7C5E61",
"w. c #67646B",
"e. c #79676A",
"r. c #6F6A70",
"t. c #726E72",
"y. c #776E75",
"u. c #767175",
"i. c #767277",
"p. c #7B767C",
"a. c #825D25",
"s. c #855F28",
"d. c #905C34",
"f. c #8F6126",
"g. c #8E652C",
"h. c #916329",
"j. c #8F6730",
"k. c #936C35",
"l. c #99753E",
"z. c #824E53",
"x. c #815554",
"c. c #815957",
"v. c #855C5B",
"b. c #915B5F",
"n. c #9B7A44",
"m. c #88635D",
"M. c #825D61",
"N. c #925F63",
"B. c #8B6564",
"V. c #8A6766",
"C. c #936364",
"Z. c #946967",
"A. c #9A6569",
"S. c #946C6B",
"D. c #9C6B6C",
"F. c #99736C",
"G. c #9C6E73",
"H. c #8B7878",
"J. c #987877",
"K. c #A16C6F",
"L. c #A1746E",
"P. c #A27473",
"I. c #A77876",
"U. c #AB7B7C",
"Y. c #A0804C",
"T. c #7F7880",
"R. c #847D85",
"E. c #AF7980",
"W. c #B57E82",
"Q. c #888489",
"!. c #978689",
"~. c #888891",
"^. c #928D92",
"/. c #9A9499",
"(. c #9B949B",
"). c #B68887",
"_. c #B48E91",
"`. c #A39294",
"'. c #AB989A",
"]. c #9F9EA5",
"[. c #A79EA4",
"{. c #ABA2A5",
"}. c #ACA4AB",
"|. c #AFA9AD",
" X c #B5A6A9",
".X c #B1A6AD",
"XX c #B3AAAE",
"oX c #AFA8B0",
"OX c #B1A7B0",
"+X c #B5ABB3",
"@X c #B8AFB6",
"#X c #BBB1B5",
"$X c #B8B3B8",
"%X c #BCB3BA",
"&X c #C68B8E",
"*X c #CA9494",
"=X c #D49A9B",
"-X c #D49B9C",
";X c #D59EA0",
":X c #D6A7A3",
">X c #DCA5A2",
",X c #C2B5B7",
"<X c #C0B6BD",
"1X c #C2B9BE",
"2X c #E1ABAB",
"3X c #EAB6B3",
"4X c #C4BAC1",
"5X c #CDC9CC",
"6X c #D4CFD4",
"7X c #DCD8DD",
"8X c #EAE8EB",
"9X c #F1EFF1",
"0X c #F9F8FA",
/* pixels */
"B B B B B B B B B B B B B B B B 8 B B B B B M 5 B B B B B B B B B B B B B B B B 8 B B B B B 8 B B B B B B B B B B B B B B B B B ",
" . . . . . . . . . . . . . . . . . . . . . . . . . . . . . . . . . . . . . . . . . . . . . . . . . . . . . . . . . . . . . . . .",
"d.d.d.d.d.d.d.d.d.d.d.d.d.d.d.d.d.d.d.d.j.d.d.d.d.d.d.d.d.d.d.d.d.d.d.d.d.d.d.d.d.d.d.d.j.d.d.d.d.d.j.d.d.d.d.d.d.d.d.d.d.d.d.d.",
"A A A A A A A 5 A 1 5 A A A A A A A A A A A A A A 5 A 1 5 A A A A 5 A 1 5 A A A A A A 5 A & 5 A A A A A A A A A A A 5 A 1 5 A A ",
"V V  .X.X.X.X.A d.1 A d.} V V V V X.X.V  .V  .V V A d.1 A d.X.V X.A d.1 A d.} V V V } A d.1 A d.V X.V V X.V X.V X.X.A d.1 A d. .",
"V V  .X.X.X.} A d.1 A d. .V V V A X.X.V  .V  .V V A d.1 A d.X.V X.A d.1 A d.X.} V } X.A d.1 A d.V X.V V X.V X.V X.X.A d.1 A d. .",
"V V } X.X.X.A A d.1 A d.X.A V V A X.X.V  .V  .V V A d.1 A d. .V X.A d.1 A d.X.X.} X.X.A d.1 A d.V X.V V X.V X.V X.X.A d.1 A d. .",
"A V A  .X.X.A A d.1 A d.X.A V V } X. .V  .V  .V V A d.1 A d. .V X.A d.1 A d.X.X.X.X.X.A d.1 A d.V X.V V X.V X.V X.X.A d.1 A d. .",
" .V V } X.} V A d.1 A d.X.} V A  .X. .V  .V  .V V A d.1 A d. .V X.A d.1 A d.X.X.X.X.X.A d.1 A d.V X.V V X.V X.V  .X.A d.1 A d.A ",
" .V A V } A V A d.1 A d.X. .V } X.X.} V  .V  .V V A d.1 A d.} V X.A d.1 A d.X.X.X.X.X.A d.1 A d.V X.V V X.V X.V  .X.A d.1 A d.A ",
"X.A V V A V V A d.1 A d.X.X.}  .X.X.W V  .V  .V V A d.1 A d.} V X.A d.1 A d.X.X.X.X.X.A d.1 A d.V X.V V X.V X.V } X.A d.1 A d.A ",
"X.A V V V V A A d.1 A d.X.X. .X.X.X.} V  .V  .V V A d.1 A d.V V X.A d.1 A d.X.X.X.X.X.A d.1 A d.V X.V V X.V X.V } X.A d.1 A d.V ",
" .X.V V V A X.A d.1 A d.X.^ % , , , & , & & , , , : < : : 3 3 , 4 3 6 6 6 6 8 8 w q w t Y R t R ! ^ R V X.V X.A V X.A d.1 A d.V ",
" .X.A V V A X.A d.1 A d.X.Q 2 k n z l z z z z l z z m m m m m m m m m m Z Z Z Z Z Z Z W Z W W Q Q T = V X.V X.A V X.A d.1 A d.V ",
"} X.X.V A X.X.A d.1 A d.X.E z > ; : ; # ; ; ; # # : # # ; : : ; : 2 : : 3 3 2 3 3 4 4 7 M 8 w w m l # V X.V X.A V X.A d.1 A d.V ",
"A X.X.X.A X.} A d.1 A d. .E z : , : ; # # : : ; : : > : > > > > 2 : 2 2 = 2 2 1 2 3 < 3 7 8 M 3 > l # V X.V X.A V X.A d.1 A d.A ",
"V  .X.X.} X.A A d.1 A d. .E l ; n H v S S S S v S S S F F G J G G G G J G K K J K J P P I I ' h > l # V X.V X.} V X.A d.1 A d.A ",
"V  .X.X.X.X.A A d.1 A d.} T k & > c @ * * * * * * * * * = = = = = = = = = = = = = = = = = = D h > l # V X.V X.} V  .A d.1 A d.A ",
"V }  .X.X.X.V A d.1 A d.} U k & > c { %X@X@XOX+X+X+X+X+X.XOX+X#X+X.X[.@X+X@X@X%X%X@X@X,X#X_ F h > l % V X.V X. .V  .A d.1 A d. .",
"V A  .X.X.} V A d.1 A d.A U k : > x s.OXOXOXOX.XXX+X%X%X,X X'.!.!.`.`.@X,X,X<X4X%X<X1X5X4X..v h - l * V X.V X. .V  .A d.1 A d. .",
"V V } X.X.A V A d.1 A d.A U k % : x a.+XOX#X%X+XXX+X1X,X'.H.M.M.I.J.5.H. X4X4X4X%X4X4X4X4X] v h > l # V X.V X. .V } A d.1 A d. .",
"V V A X.X.A V A d.1 A d.V U k % : x a..X.X4X0X5XXXXX,XH.5.S.).=X>X>X).5.y.%X4X<X4X4X4X4X4X] D h : h : V X.V X.X.V } A d.1 A d. .",
"A V A } A V V A d.1 A d.V M g $ > j a.+XOX@X0X7X}. XH.@.D.*X=X;X>X>X3X*X%.!.<X<X4X4X4X4X$X] v h * k = V X.V  .X.V V A d.1 A d. .",
"A V V A V V A A d.1 A d.V M k @ > j a.%X}.}.0X8XXX!.5.B.).*X=X;X;X:X:X3XS.2.{.#X4X4X4X<X#X] v 2 ; k : V X.V  .X.A V A d.1 A d. .",
"A V V V V V A A d.1 A d.V 7 g % = x o.1XOX[.6X7X{.0.3.W.).*X=X;X;X;X2X2X-X&.Q.%X$X1X1X#X$X] x h : m : V X.V } X.A V A d.1 A d.} ",
" .V V V V V  .A d.1 A d.V M h @ = j o.%XOX[.[..X!.@.q.E.G.N.A.E.&X&X&X;X:XB.8.+X$X$X$X|.+X_ v 2 : l # V X.V } X.} V A d.1 A d.A ",
" .V V V V V  .A d.1 A d.V 7 h $ : x o.@XOX+X+XOXe.u =.8.8.M.,.3.K.A.N.z.P.J.-.+X1X1X|.1X9X_ v h = h : V X.V A X.} V A d.1 A d.A ",
" .A V V V A } A d.1 A d.V M g @ * x o.%X@XOX4X+X4.@.2.M.,.@.>.3.3.>.>.7.B.q.%.{.$X$X|.9X5X] v 2 = k # V X.V A X. .A A d.1 A d.V ",
"} A V V V A A A d.1 A d.V 8 f $ # j { $X+XoX,X_.&.@.6.D.N.6.M.v.E.M.5.>.2.e.&.(.$X].1X5X'._ v h # h : V X.V A X. .A A d.1 A d.V ",
"A  .V V V  .A A d.1 A d.V 4 g $ # j o.+X+XoX XI.6.M.S.Z.K.N.A.N.*XE.A.N.G.S.2./.|.}.|.{.|._ v 2 % k : V X.V V X.X.} V d.1 A d.V ",
"A  .A V V  .V A d.1 A d.V M h @ % x ] }.}.[.`.I.x.Z.).U.A.z.A.U.&XW.A.G.Y.S.V.[.|.$X$X|.|._ v h % l : V X.V V X.X.} A d.1 A d.V ",
"V } A V  .} V A d.1 A d.A 4 f @ ; g { }.}.oX/.P.b.B.P.A.z.N.3.x.P.G.A.N.E.I.P.'.|.|.}.}.{.C x 2 @ h & V X.V V  .X. .A d.1 A d.V ",
"V A  .A  .A V A d.1 A d.W 4 g O * j  .[.{.}./.E.D.6.C.<.<.c.) Y @.~ 3.A.A.I.K. X/././.(./.C x 2 # h # V X.V V  .X. .A d.1 A d.V ",
"V A  .A  .A V A d.1 A d.X.4 - O # j [ (.(./.^._.S.%.m.:.) / / ) / ~ ) 3.z.m.Z.$X^.^./.^.^.C v 2 @ 2 & V X.A V } X.X.A d.1 A d.V ",
"V V }  .} V V A d.1 A d.X.3 g @ @ j ` ^././.^.^.u.| 1.:.) / <.C.N.3.~ U 1.7.S.p.u.u.u.u.u.C v 2 $ 2 & V X.A V } X.X.A d.1 A d.A ",
"V V A } A V V A d.1 A d.X.4 f % % j ` R.T.p.p.p.t.^ | | v.D.D.L.A.M.) ) :.O.e.u.t.u.u.u.t.b x 2 + 2 & V X.A V A X.X.A d.1 A d.A ",
"V V V A V V V A d.1 A d.X.4 > O * j ` w.r.r.r.r.r.&.~ ( ,.D.C.m.C.S.m.;.| +.=.=.$.$.$.$.+.C j 2 + 2 , V  .A V A X.X.A d.1 A d.} ",
"V V V V V V V A d.1 A d.X.< f @ % j ` -.-.-.-.=.-.>.~ ! ( v.c.x.1.7.;.^ ^ | p y 0 y d a d b j : + : , V X.} V A X.X.A d.1 A d. .",
"V V V V V V A A d.1 A d.X.< - O * g ` y y y y d #.5.%.r Y ;.7.C.v.<.~ t | *.p p y a +.d p b x : + 2 & V X.} V V  .X.A d.1 A d. .",
"A V V V V V A A d.1 A d. .: - + o g { a a d a d #.6.,.r e w ~ ;.O.R e e $.*.y p a a $.d y b j > + 3 1 V X. .V V  .X.A d.1 A d. .",
"A V V V V V } A d.1 A d. .< - @ @ j { p d d a d | 4.6.R e q q q 9 9 e r $.*.p a a a +.d y b j > + : 6 V  . .V V } X.A d.1 A d.A ",
" .A V V V A } A d.1 A d.} < - + @ j  .d d a a a | m.m.| r q q 9 9 q r ^ | 9.y y y i +.+.d b j > + 2 6 V  .X.V V } X.A d.1 A d.A ",
" .A V V V A  .A d.1 A d.A < 2 + O j { p p y p p s F.F.1.t 9 q q e r | %.*.t.9.0.w.u.p.u.r.b j 2 + 2 6 V } X.A V A  .A d.1 A d.V ",
" .} A V A }  .A d.1 A d.V < - $ o x { p p p d d &.F.L.Z.| R Y ~ %.;.;.8.w.9.9.u.~.-.-.9./.b g 2 + 2 6 V } X.A V A  .A d.1 A d.V ",
" . .A A A  .} A d.1 A d.V < > o o j { =.-.0.Z.-.y.I.I.F.7.;.| <.1.m.c.F.-.0 p ~.T.+.*.~.].L j 2 + 2 8 V A X.A V A } A d.1 A d.V ",
"}  .} A }  .A A d.1 A d.V , - o o x ] f.h.f.f.g.h.h.f.f.k.g.h.g.g.k.k.k.k.l.l.n.n.n.n.n.Y.L j k % 2 w V A X.} V V } A d.1 A d.V ",
"A  . .}  . .A A d.& A d.V < - o o x D S S v S S v S S S F F D J G F F F G G J K C P P I ....v k # k w V A X.} A V A A d.1 A d.V ",
"A  . .}  . .V A d.& A d.V & - $ X . o   o o @ @ O O O O O @ @ O @ @ @ @ @ @ @ @ $ $ @ @ @ @ = & & 2 w V A X. .A V A A d.1 A d.V ",
"V  .X.X.X. .V A d.1 A d.A , - > % @ $ $ + $ o @ $ @ $ $ $ $ o $ + + + + $ % $ % $ & % % & & & & 2 2 8 V V X. .A V A A d.1 A d.V ",
"V } X.X.X. .V A d.1 A d.A : @ * ; : * ; = = : : ; : ; > : > > > > > 2 2 > 2 > k 2 2 n l 4 n n n n 3 t V V  .X.} V V A d.1 A d.V ",
"V A  .X.X. .V A d.1 A d.} r   .   X   X X X X .     X .   .             X . . . . . . . . . . . . . R V V  .X.} A V A d.1 A d.V ",
"V A  .X.X.} V A d.1 A d. .A V V V V V  .X.V V V V A d.& A d.A  .X.A d.& A d.} X.X.X.} A d.1 A d.V X.V V V } X. .A V A d.1 A d.A ",
"V V } X. .} V A d.1 A d.X.A V V V V A X. .V V V V A d.1 A d. .X.X.A d.1 A d.} X.X. .A A d.1 A d.V X.V V V } X. .} V A d.1 A d.A ",
"V V A  . .A V A d.1 A d.X.} V V V V } X. .V V } V A d.1 A d.X.X.X.A d.1 A d.A  .X. .A A d.1 A d.V X.A V V A  .X.} A A d.1 A d.} ",
"V V A  .} A V A d.1 A d. . .A V V V  .X.} V V } V A d.1 A d.X.X.X.A d.1 A d.A  .X.} V A d.1 A d.V X.A V V A } X. .A A d.1 A d.} ",
"V V V } } V V A d.1 A d. .X.A V V A  .X.V V V  .V A d.1 A d.X.X.X.A d.1 A d.V }  .A V A d.1 A d.V X.A V V V } X. .A A d.1 A d. .",
"V V V A A V V A d.1 A d.} X. .A V A X.X.V V V  .V A d.1 A d.X.X.X.A d.1 A d.V A } V V A d.1 A d.V X.A V V V A  .X.A A d.1 A d. .",
"A V V V V V A A d.1 A d.V  .X. .A X.X. .V V V  .V A d.1 A d.X.X.X.A d.1 A d.V V A V V A d.1 A d.V  .} V V V A } X. .A d.1 A d.X.",
"A V V V V V A A d.1 A d.V } X.X.X.X.X.} V V V X.V A d.1 A d.X.X. .A d.1 A d.V V V V V A d.1 A d.V  . .V V V V } X. .A d.1 A d.X.",
"} V V V V V  .A d.1 A d.V V X.X.X.X. .V V V } X.V A d.1 A d.X.X. .A d.1 A d.V V V V V A d.1 A d.V }  .A V V V A  . .A d.1 A d.X.",
"} A V V V A  .A d.1 A d.V V }  .X. .} V V V  .X.V A d.1 A d.X. .} A d.1 A d.V V V V V A d.1 A d.V } X.A V V V V } } A d.1 A d.X.",
" .A V V V A  .A d.1 A d.V V V }  .} V V V V  .X.V A d.1 A d.X. .} A d.1 A d.V V V V V A d.1 A d.V V X.A V V V V V A A d.1 A d.X.",
" .} V V V A  .A d.1 A d.V V V V } V V V V  .X.X.} A d.1 A d. .} V A d.1 A d.V V V V V A d.1 A d.} V X.} V V V V V V A d.1 A d.X.",
"} } } } } } } A d.1 A d.} V V V V V V V } } } } } A d.1 A d.} V V A d.1 A d.} V V V } A d.1 A d.} V } } V V V V V V A d.1 A d.} "
};
