/* XPM */
static char *dab0165e19df4035e2d9a98d92900eda4WQ4PzQ0pLThdTw0[] = {
/* columns rows colors chars-per-pixel */
"64 64 212 2 ",
"   c #19320F",
".  c #1E2B13",
"X  c #163512",
"o  c #183310",
"O  c #153C11",
"+  c #1A3A13",
"@  c #154412",
"#  c #134B14",
"$  c #144C1A",
"%  c #1F4811",
"&  c #0F5D14",
"*  c #125314",
"=  c #115A13",
"-  c #1A5D15",
";  c #11561B",
":  c #185718",
">  c #284E11",
",  c #254D11",
"<  c #245213",
"1  c #295412",
"2  c #255D15",
"3  c #106E0F",
"4  c #0D740E",
"5  c #0E7A0F",
"6  c #0E6413",
"7  c #0D6C12",
"8  c #116312",
"9  c #106C11",
"0  c #136719",
"q  c #0D7311",
"w  c #0D7B11",
"e  c #0E771F",
"r  c #127411",
"t  c #137B11",
"y  c #107E19",
"u  c #167316",
"i  c #266517",
"p  c #216B15",
"a  c #256219",
"s  c #26651A",
"d  c #144E22",
"f  c #135224",
"g  c #115B22",
"h  c #14522C",
"j  c #14592E",
"k  c #145D32",
"l  c #19593B",
"z  c #116B24",
"x  c #116C29",
"c  c #186528",
"v  c #0E7723",
"b  c #12782A",
"n  c #146234",
"m  c #146D35",
"M  c #16643B",
"N  c #146A3C",
"B  c #18643E",
"V  c #147336",
"C  c #127D37",
"Z  c #14753C",
"A  c #157535",
"S  c #0F6A20",
"D  c #206B23",
"F  c #1C5D44",
"G  c #196541",
"H  c #186A42",
"J  c #1D6B4E",
"K  c #146F42",
"L  c #147443",
"P  c #147942",
"I  c #18724C",
"U  c #147E4B",
"Y  c #197855",
"T  c #0D840E",
"R  c #078E0C",
"E  c #0D8A0E",
"W  c #10810F",
"Q  c #07940C",
"!  c #09940D",
"~  c #069C0C",
"^  c #0A9B0C",
"/  c #0D8310",
"(  c #0E8A13",
")  c #0D8B1B",
"_  c #108313",
"`  c #11801E",
"'  c #0A9315",
"]  c #0A9519",
"[  c #06A30B",
"{  c #09A20C",
"}  c #05AB0A",
"|  c #09AB0B",
" . c #06B30A",
".. c #05BA0A",
"X. c #08B20B",
"o. c #08A815",
"O. c #07BC13",
"+. c #0D8223",
"@. c #0D8A25",
"#. c #108F23",
"$. c #0E9A2B",
"%. c #109026",
"&. c #10922A",
"*. c #0F8B3D",
"=. c #118C36",
"-. c #11823A",
";. c #108B38",
":. c #128437",
">. c #0F963B",
",. c #0D9C3A",
"<. c #109636",
"1. c #0CAA2C",
"2. c #0BA23A",
"3. c #09AA3D",
"4. c #05BF3A",
"5. c #04C409",
"6. c #04CA08",
"7. c #02D507",
"8. c #03DC07",
"9. c #04D208",
"0. c #05C619",
"q. c #02E906",
"w. c #03E106",
"e. c #06C622",
"r. c #14804C",
"t. c #138948",
"y. c #0E9B4C",
"u. c #0F9C43",
"i. c #11944B",
"p. c #148354",
"a. c #15855B",
"s. c #138A5E",
"d. c #138854",
"f. c #0F9456",
"g. c #12915B",
"h. c #0CA340",
"j. c #0CA34E",
"k. c #0BA55D",
"l. c #0AAB5D",
"z. c #09AC51",
"x. c #07B65B",
"c. c #08B35A",
"v. c #06BA5C",
"b. c #07B557",
"n. c #07B541",
"m. c #138E63",
"M. c #0E9B62",
"N. c #0F9761",
"B. c #119262",
"V. c #119667",
"C. c #119978",
"Z. c #0CA363",
"A. c #0BAA65",
"S. c #0CA66B",
"D. c #09B363",
"F. c #07B866",
"G. c #08B679",
"H. c #0DA577",
"J. c #06C94E",
"K. c #05C55D",
"L. c #04D250",
"P. c #04C87F",
"I. c #109D84",
"U. c #0DA789",
"Y. c #09B48B",
"T. c #08B988",
"R. c #0EA995",
"E. c #0DAD9B",
"W. c #09B799",
"Q. c #07BE99",
"!. c #08BC99",
"~. c #09B995",
"^. c #0ABFB1",
"/. c #04C984",
"(. c #05C686",
"). c #06C596",
"_. c #04CC93",
"`. c #05CA99",
"'. c #06C49C",
"]. c #02D292",
"[. c #02D398",
"{. c #02D087",
"}. c #0AC5BB",
"|. c #08C9BA",
" X c #08C5B2",
".X c #06D3BB",
"XX c #04D4B3",
"oX c #05CCA9",
"OX c #09CDC6",
"+X c #09CFC9",
"@X c #08D2C6",
"#X c #09D2CA",
"$X c #0AD9CC",
"%X c #0BD6D1",
"&X c #0CDAD4",
"*X c #0EDEDA",
"=X c #12E2DE",
"-X c #1BE6E6",
";X c #55F4F7",
":X c #9DF5F2",
">X c #9FF8F6",
",X c #95FBFC",
"<X c #A3F9F7",
"1X c #D4FFFD",
"2X c #DCFDFB",
"3X c #E3F9F6",
"4X c #E7FAF8",
"5X c #EEFEFE",
"6X c #E8FBF9",
"7X c #F3FFFF",
"8X c #F1FEFE",
"9X c #F3FFFF",
/* pixels */
"4X7X7X7X7X7X7X6X8X3X3X1X1X1X1X1X1X1X1X1X1X1X1X1X1X1X1X1X1X1X1X1X1X1X1X1X1X1X1X1X1X1X1X1X1X1X1X1X1X1X1X1X1X1X1X1X1X1X2X3X4X7X7X7X",
"7X7X5X1X1X1X1X1X2X1X1X1X1X1X1X1X1X1X1X1X1X1X1X2X1X1X2X1X1X1X1X2X1X1X2X1X1X1X2X1X1X1X1X1X1X1X2X1X1X1X1X1X1X2X1X1X2X1X1X1X1X5X7X7X",
"7X7X,X-X*X$X#X#X+X+X+X#X+X+X+X+X+X+X+X#X#X#X#X+X+X#X#X#X+X+X+X+X+X+X+X+X#X#X#X+X+X+X#X#X+X+X+X+X+X+X+X+X#X+X+X+X#X+X%X*X-X,X5X7X",
"7X2X-X&X#XXX`._.`.`.`.'.E.E.E.E.E.E.E.E.!.[.`.`.`.`.`.'.W.E.E.E.E.E.E.E.!.`.`.`.`.`.`.'.E.E.E.E.E.E.E.E.!.'.`.`.`.`..X.X&X-X1X7X",
"7X1X*X}.oX/.Y.G.Z.S.A.F.m.m.m.m.m.U m.m.A.F.m.m.Z.V.Z.D.m.m.s.s.m.m.m.m.M.A.m.m.m.m.B.D.m.m.U s.m.m.p.m.M.Z.m.m.C.I.U.oX#X*X1X7X",
"7X1X%X X/.F.Z.b.y.h.2.h.>.H G l G G G r.3.P G l G G K *.h.P G G G G G P ,.P G G G F K *.,.G G G G G H P ,.K K I I Y V.Y..X&X1X7X",
"7X1X@XXX/.A.S.u.<.<.>.<.<.m k n n n V =.;.h h h h h h n >.m n n n n V =.m j h h h h h k C m n n n V m y V n h n F J U I. X@X1X3X",
"7X1X$X].G.k.2.<.<.<.&.&.$.! +.+.+.+.] ~ j d d d d d d h b ! +.+.+.+.+.R h f d d d d d h x / z v v v v 5 h f h h l N Y C.~.$X1X7X",
"7X1X@X].F.h.<.<.<.( E &.( E = 8 = = 3 Q & @ @ # O O # * q E & = = 6 7 T * # @ O X X O f & 7 @ # # * & 4 $ @ $ f h n I m.~.@X1X7X",
"5X1X@X).F.,.<.<.) ( W E ! * @ O @ X # Q ( # O O O @ O * 5 * @ O O O # 6 7 # @ X O O @ * 6 @ O O X O @ * & # X $ h k M s.).#X1X5X",
"3X1XOXW.K.4.<.<.%.E ! Q 5 @ + O     X & } 6 # # # @ * r 4 @ O X O O @ # 4 * @ O @ @ # 6 8 O X X O o @ @ 5 * @ # h k Z M.~.OX1X2X",
"3X1XOXR.A.4.1.1.| ! ^ ^ @     O     X @ q ^ / w w q 7 T @ X O O O O o O * 8 = * # * * q @ O X   o O O @ = q = 6 c x N M.R.OX1X3X",
"3X1XOXR.k.1.$.] 5 5 T Q # O X   o X O # 5  .E T w 5 w w @ O X O O     @ = 9 r r q q r 5 @     O O o O # 6 q 6 7 S v C M.R.OX1X3X",
"3X1XOXW.x.-.k f # @ # T R @ X @ o O @ * ..4 O O @ O # q 4 @ O O O   O * 5 5 ( E E T W ! 3 @ X O O O O * 5 * O @ # k N N.~.OX1X3X",
"2X1XOX).k.M k $ # @ O * Q & # @ @ @ * Q [ @ O   @ O @ * R & @ @ @ O # 8 T _ E E E E E W R * @ @ @ @ @ 4 7 O O O $ j N s.).OX1X3X",
"1X1X@X].s.M k # * @ O O 7 T = & 7 6 4 } * @ o   O O O O 7 R = = # # * 5 5 E W 5 _ W E _ E T = = * = * 5 O o O X $ k l m.~.@X1X7X",
"1X1X@X).s.N j ; @ O @ # 6 ! T 5 T T R Q * O O O O @ O # 7 ^ 5 5 4 4 5 5 t E E T t W W E T R 5 5 4 4 4 3 @ @ O @ = h N m.W.@X1X3X",
"1X1XOX_.l.N j $ * # @ * w = @ O # @ * R 5 @ O   X O @ * E & @ @ @ @ @ 4 5 E T T E E E E T * @ O X @ # & * @ @ @ $ j N M.Q.@X1X3X",
"1X1XOX~.x.C n g & # * 4 T @ O @ @ O @ 3 Q & @ @ @ @ * 4 Q @ O O + O @ # W W R T E E ! E 5 @ O   o O @ # 3 @ # # f n Z f.).OX1X3X",
"1X1XOX~.l.,.V V 6 6 6 Q = O @ O @ @ @ @ 5 T 6 6 6 6 3 ^ = @ O     O O @ 3 5 5 5 t t 5 5 # @ @   o O @ @ * * # # h V C c.W.OX1X3X",
"1X1X+X~.l.3.o.~ ~ Q [ ! * @ O @ # @ @ # 7 ~ ~  .X.....^ = @ O O @ @ @ # & T T T T T R 4 @ O @ O @ @ O # * 8 5 4 w ( 2.l.W.OX1X3X",
"1X1XOX~.c.*.n & & # * Q 3 @ O # # @ # & E w p 0 p p 5 6.[ @ O O O @ # = T 3 @ O @ @ # 3 = @ O @ @ @ @ * & * @ # j n Z l.W.OX1X3X",
"1X1XOX_.J.m k f * @ @ 7 ~ * @ # # # & 7 R p a i p i i t 7.& @ @ @ # & 3 T # @   @ O @ * r # @ @ @ @ # * 8 @ @ @ $ n Z N._.OX1X3X",
"1X1X@X].M.N h h * @ O # 5 T & 6 & 6 7 Q r i i i i u i p [ [ & 8 & = 7 Q = @ # @ @ @ @ * 8 = @ # @ = * 3 @ @ @ @ $ N Z s.!.@X1X3X",
"1X1X$X].M.N f h # * # * 7 [ } } } } } R r 1 1 i i i i i R 7.5. .} } } R # O O O # # # * * w 5 W W _ _ = @ @ @ # h V N m.W.OX1X2X",
"1X1X#X].Z.N j h # # @ ; T 5 * # # * 6 ~ T i 2 i i i i t [ T # # @ # = R & O O O @ # # & q = @ O @ # # 6 * @ @ # f n m M.~.OX1X3X",
"1X1XOX_.J.C k h * # # 6 ~ * # @ @ @ * / ..p i i i i r W  .#     o O @ & R @ O X # # # 7 E @ @ O O # @ * 9 @ # @ h k Z s.W.OX1X3X",
"1X1XOXW.c.,.m N 7 & 6 Q 8 @ O @ O @ # * ! { u t W t E | 7 O O O O X O @ 4 4 * # & & 7 Q = o   X X # @ * * * * * h V U M.E.OX1X3X",
"1X1XOXW.l.0.5.5.5.5.5.~ @ O @ @ @ @ @ @ w 8.w.q.q.q.w.^ #   o O X     O & R } } } } } ! *     O @ # O * * 7 / T Q Q >.g.R.OX1X1X",
"1X1XOXW.l.>.m g & & 6 [ 6 @ O @ O @ @ & ! ~ = = = * 8 [ 6 O     o o X @ 7 6 # @ @ # & Q 9 o   O @ @ @ * 6 * - - m Z -.M.R.@X1X1X",
"1X1XOX~.J.V n h @ @ @ 7 [ * O O O O * t  .* o @ %   @ 4  .# o X X X @ 7 ~ @ X o X O @ 7 E @ O O O O # * 9 2 i s c A r.M.~.OX1X1X",
"1X1XOX_.f.N h f @ O O $ / 5 * * * * 8 [ w X o O o     # T 5 # # # # = R 8 X       O O # 5 5 = * # * = 5 8 2 i D c A P M.~.OX1X1X",
"1X1X@X).a.F h h # X X X 6  . . . . . .[ @ o   o X   X O 8 ..~ ^ ~ ~ ~ E @ o           X 6  . . .~ R R q : > < a M V P M.W.OX1X1X",
"1X1X@X].m.F h h O O X @ 7 T * # * * 7 } & o   o     o # T } T 5 w w T ~ = o     X O   @ w Q * # @ # # q & 1 > 2 n V P M.Q.@X1X1X",
"1X1XOXQ.k.M h h X O O & ^ # o X X X @ w [ # X X   X @ 8  .R 5 5 r t E ! ~ @ o     X O & } * X X X o O * 6 - , 2 c m r.S.).OX1X1X",
"1X1XOXW.x.-.n h f # # R r o o o   o O # ~ w # # @ # * ~ [ r 5 5 5 4 5 E  .4 # @ @ # * ~ T O o . o o X O & & a a m V p.M.W.OX1X1X",
"1X1XOXR.k.3.] ) R R R ( #             X 7 } [ { [ { [ } W 5 r r t r t E ! 9. .......5. .#       o + X O $ 6 6 e e v =.k.R.OX1X1X",
"1X1XOXW.k.,.V V 6 7 q Q * o   . o   o @ w ' = & = = q } E 5 5 5 5 5 5 E ^ ..= 6 6 6 w  .#           o # * # O O h h M N.R.OX1X1X",
"1X1XOXW.x.:.V n s 2 2 / E @     o o O 6 } * X O X X @ ! 5.T w t t 5 E ^ 7.9 X X X X @ ( [ @   X o X + @ 6 @ X O h j G B.W.OX1X1X",
"1X1XOX_.D.P V n i s 1 8 R 7 @ O O @ ; R q O   X X X O * ..^ W / W E E 7.X.O o o     o @ R & # @ @ # # & * O O @ h h M m.~.@X1X1X",
"1X1X@X_.f.Z m c s < < * q ! 4 w 7 7 T R # O O X O X X O 5 6.{ { X.| 5.8.#   O o X O O O 6 T 7 7 = 8 6 6 O X X O h k F a.Q.OX1X1X",
"1X1X@X_.Z.P A c i 1 1 s T ! 9 = & 6 7 ! * O X O X X @ @ w 5.w q r 4 ! 8.* X     X O O @ 7 5 & = * * = q # X X # h k N m.W.$X1X1X",
"1X1XOX).A.p.A A i i 0 r E * @ O   O # 4 q @ O O @ O @ = } 7 @ O O O * | | * @   O O @ 6 T # X o O @ @ 7 6 O X @ h k N f.).@X1X1X",
"1X1XOXW.x.>.A x x s u / 5 @ O     O # & T & @ # @ @ * { } # O X @ @ O 6 5.W * @ * * * / T O       @ @ & 5 # * ; h n r.A.~.OX1X1X",
"1X1XOXW.k.2.$.' R / / Q $ o O X o O # # 6 T q q q w / } * O O @ O O O # 5 ..E W E T E ~ =     O @ # O # 8 5 4 7 :.b ,.v.W.OX1X1X",
"1X1XOXW.k.2.@._ / / R Q # X O O X % % * 6 T w R R R ' Q * @ @ O + O O # 4  .{ { [ } |  .* O   O O % @ # 7 T w w +.@.3.v.W.OX1X1X",
"1X1XOXW.x.-.k h f @ # R w O @ O X , % 6 ( * O # @ # * Q T # @ X O X @ * Q ! W _ / ( E } ~ @   o O # @ 6 ' = @ d h n P D._.OX1X1X",
"1X1XOX).k.B j h @ O O * ~ 6 # @ @ * 6 T T @ O O # # # * T = # @ @ @ * 3 R E W 5 T E E Q ..8 @ @ # - = R ~ @ @ # h k m M.].@X1X1X",
"1X1X@X].M.M f h f O O # w ~ 6 6 6 6 7 ! # O O @ @ # @ @ 8 5 * * = * 8 T t W T r W E E W } ..6 6 7 4 E 5.= @ # @ h n Z m.!.@X1X1X",
"1X1X@X).M.N j h # O O @ 7 ~ R R R Q ~ R # O @ @ @ @ # @ = 5 q 9 3 r 4 W T E 5 5 E E E R [ ..[ ~ { { } ..& @ @ # h n Z V.!.$X1X1X",
"1X1XOX_.M.M j h f @ @ * E 6 @ O @ # & R r @ X O # # # * 6 8 * @ @ # # r 5 E r 5 E _ T ^ } 5 @ O # # 8 [ E @ @ # h k Z f.].@X1X1X",
"1X1XOXW.x.C n j * # # w Q # O X O @ * 7 ~ * @ * @ # * = 4 # @ X X o @ * W W E W _ E Q ~ } # X     @ # 9 | = # # h n P A.].@X1X1X",
"1X1XOXW.l.>.Z N 9 9 7 Q & @ O O O @ @ # 5 5 6 6 6 6 6 q # # @ @ @ O @ @ 3 T E E E E { X.6 O   O @ # # * 5 T 8 8 m :.>.L.~.OX1X1X",
"1X1XOXW.k.3.o.~ ~ R R T * @ @ O o O O @ q ^ ~ R E R E 7 # O O @ O O O # = R ! X.......^ * o o O X O @ # 6 5 Q Q } O.e.K.~.OX1X1X",
"1X1XOXW.k.;.k g # @ * 4 8 @ O O O O O & 5 7 @ # @ @ * w 8 @ X o O # @ # 4 8 @ @ # % = E 6 @ O O O O O * r 4 T E ) <.,.v.).OX1X1X",
"1X1XOX~.l.M f $ @ O @ * 5 # O   @ @ # 4 R @ O O @ @ @ & R * @ X X O * 8 5 @ @ O @ O @ = E @ @ O @ @ @ 8 5 5 W E ( <.,.v.].@X1X1X",
"1X1X@X).B.N k d * @ O ; 6 7 * # & * & / = @ O O O O O # q 5 6 * = = 6 w # @ O O O O O # 9 8 * * * * & r t T T E %.<.,.D.).@X1X1X",
"1X1X@XQ.M.B n h f @ O * 6 / E / / Q ~ 5 * # @ # O # # # 7 [ ~ ~ ~ ~ ~ w * # # @ @ @ # # 6 5 / / _ W T 5 / E ) ) <.<.u.D.Q.@X1X1X",
"1X1X@X).Z.Y B k j d h h e ` x x z z A ( 0 d d $ h $ f n ) ) ; g g c z Q e f d d d d d x q 0 h d h f j _ ) %.#.&.<.<.z.G.!.@X1X2X",
"1X1XOX^.P.d.J M n j n V ' V A A V V V =.' n h h h j n V o.m h h h j h ;.^ n k k k h n m y n h h h h n V <.<.<.<.,.l.A.T.].@X1X3X",
"1X1X&X}.W.H.V.s.a.Y a.y.t.a.p.d.U U a.d.y.f.r.r.p.r.g.z.i.K N P N I L p.j.f.a.p.p.r.d.i.P L K L N Z L U i.y.y.z.S.G.G.Q.}.*X1X7X",
"3X1X=X#X^._.{.{.T.(.T.T.U.U.I.I.I.I.U.Y.Y.(./././././.T.I.I.I.I.I.I.I.I.Y.(././.(./.Y.U.I.I.I.I.I.I.I.I.U.Y.Y.Y.Y.~.~.XX#X=X1X7X",
"3X3X;X-X&X.X}.}.}.}.}..X}.}.}.}.}.}.}.|.|.|.}.}.}.}.|..X}.}.}.}.}.}.}.}.|.|.}.}.}.}.}.}.}.}.}.}.}.}.}.}.}.}.}.}.}.}.OX$X-X;X2X7X",
"3X7X2X>X>X:X:X:X:X:X:X:X:X:X:X>X:X:X:X:X:X:X:X:X:X:X:X:X:X:X:X:X:X:X:X:X:X:X:X:X:X:X:X:X:X:X:X:X:X:X:X:X:X:X:X:X:X:X:X>X>X2X7X7X"
};
