/* XPM */
static char *_0414d8093b2479cc22d4f36997d4f7frONXx6psZQsO1xZx[] = {
/* columns rows colors chars-per-pixel */
"128 128 90 1 ",
"  c #030303",
". c #080705",
"X c #070806",
"o c #080807",
"O c #070709",
"+ c #080708",
"@ c #060908",
"# c #0B0B0B",
"$ c #100D07",
"% c #100F0C",
"& c #0F100F",
"* c #151301",
"= c #11100F",
"- c #0F0F10",
"; c #100F10",
": c #0F1110",
"> c #131313",
", c #191715",
"< c #181816",
"1 c #161619",
"2 c #171818",
"3 c #1B1B1B",
"4 c #211F1A",
"5 c #1F201B",
"6 c #22211E",
"7 c #2A271F",
"8 c #1F1F20",
"9 c #211F20",
"0 c #1E2020",
"q c #232323",
"w c #282726",
"e c #272825",
"r c #2A2A26",
"t c #262928",
"y c #2B2B2B",
"u c #2E312E",
"i c #313027",
"p c #32322E",
"a c #3B372E",
"s c #2D3332",
"d c #2E3B37",
"f c #333333",
"g c #353935",
"h c #3A3B35",
"j c #34333A",
"k c #373838",
"l c #3C3C3B",
"z c #413D39",
"x c #3B413E",
"c c #434134",
"v c #43433D",
"b c #4D4C3C",
"n c #403F43",
"m c #3E4442",
"M c #434443",
"N c #484243",
"B c #474944",
"V c #4B4B46",
"C c #46454A",
"Z c #4C4C4B",
"A c #4D504B",
"S c #51524C",
"D c #4F4E55",
"F c #4C5351",
"G c #535351",
"H c #5B5B55",
"J c #54525C",
"K c #525B58",
"L c #5B5B59",
"P c #666450",
"I c #63645C",
"U c #68695F",
"Y c #7A715E",
"T c #575364",
"R c #605C6C",
"E c #656562",
"W c #64626C",
"Q c #636A68",
"! c #66736D",
"~ c #6F7069",
"^ c #74756C",
"/ c #757670",
"( c #727178",
") c #717D79",
"_ c #8E836B",
"` c #85867B",
"' c #88887C",
"] c #8E9083",
"[ c #948CA2",
"{ c #B1B3A5",
/* pixels */
"# ##X   X + >>#yqq# s>+#>#X#    O  2X#y3 X  X >3     2q X>O3;># o-1#>2%+    #   1>#.#  X  #O dm @&2<X XX  1 33 +X  > #X  X1oXX  ",
"   #    #.  ># 2q>  w##><> X  #XX  #+# #  #1X X##   #  X.3#  wM #X#X2q#  X  # #6##2  ##  #> #  t >qy- XX #3XX#XX  XX><X ##;O  X ",
"X  3># ##   ##     #   X+X #  ##X X#1<    #>   #>  X X# #1X  >y## #1  #   X#  #y. X X  #X#   >>#1o>XO#  X#>#X #   O q>> 1###    ",
" # 21#X1# X1>  #X###>13 #    X->+X1X#>   #   X1 X+ ##   #> ##o  # =>#q#   O #% X2 XX11 =1#X   > w1 #2># 1X  X ##>#   +2  #XX    ",
" #  X%# X  1# X#  ###13  1  #XO  ##        #X#>  + #33> ## q T[  -     11 X >1 X   > gMX 2 w13oX3>#X>#.11#>.X#.131 #  ##X%   1< ",
"X##X###    XXX+ 1>  X    3- #X#   #q >  #2   XX   #>#t> ##X; T[N O # MfX# #X X #=o#o 3p  1 w321        X###  >  o# # X  >  #  >X",
"   X    O##>> # qq  X # o1 X #9#X qM 2O #q#Xq##X  %##  # o  > <y-# # lf 1<  #  2q12 1   =XX  1p X   >2  #  2##   X OX+  O . ty  ",
"X  X# X ## #;#  =&   # #&      X# 1q#XO   .13   X#   ii     #>  #1  >   3><1#  .1 .##>#. # 2#>>#X  .1# X X 2q> X    #  XX . tt  ",
"  XX >;# <w###      X# ;# #XX>X X   ##X ####       # ca   XX# 11    ##1   1>  #X 2#  +X  X>32# 1### #X XX#  12X###X>.  +  >#  XX",
"+ +  XX-XO>     >2 OX># X>1 #1# X  X XX## 2> #  # 1=O     ##XX# #31##XX# ##    ;X3  X =#  2## #  #  X  XX #   >#.# >OX#  #;+  X ",
" 11#+##># XO    qq # +X .XX+    ##  q#   >##X XX X1 X  1# #+  > 2k; >;.># X  wl >>tw## 1#+#22 .    13 #O    X;X  X X   #X       ",
"## #;# X#  #  #; #>OXX     O#+XX X  fh  X41#X+       1###q+    #X#-X    ooXXX13 # lM 2X11X >%  #    ;3# #1 ##;#XO  X 1#   #X ##O",
"q#2q >2 >2#   X     #+X <1 ##X   X## > #> >     >1  X X -X+X3w #. 2tX 32        ##  +#O  X  3t #  OX;###X#%#X  11  #tk#  X  X1# ",
"X  # X 3y1# #  XX   #O  #  #;>  <>X   X  >1 #OXO= X>    X X; ;q- ##   23  X#1XX# ## #  <# 3>###  X> ># #  1# +X   ###X  ># o# X+",
"=ywXX  # 2q#>#  X #> X X># #XOXw1X# w3 2#   +    XX  #q> X O OX+X ##    q1#q +# >X#  X;t3 hk  q#>X XXX>+># X X  ###1 # X X1o  X ",
"yh##     X wq #>#X#X #X #X  X ##XX##21 1X  X   XX  1; >X#;-  O#3  +.  X 2>      1>X#     2X    ;w2    ####X#  OX12 o- XX O>  >>q",
"   O   X+   #O#-# X#1    =>#>#    >3# ;#XX #X  XOX X X+### X X1#   X#X > 23  31  hl qf 9g ##. X  + X#  3qX    23o  ># =O +# >8>>",
"#1.++X ># XXX X ###>>   OX># X    ###XO#;#     X X  ##2#  X+  o  X  1##> X   q3 1 2>>t2   #q#  6l #        #; #q3 X## XX#XX#    ",
" >2  ### ->># . >>    1O         X# X# >>  +  XX X+#>   X  X    X  #####X      >q 2w  #+   3># ql #X># ##X ># >      ## X +OX. #",
"   XX  ##+ +#> #          ##61  X#  +X#+1- X##O#   #3#X## X>###  X#   #X;+lX #   ##X1# #1    #1> >X=1> 1q#   X###   X1-   #+# 23",
" #> X #># #>#X3#O#  =X  # >32# X #31O X   >X%> X    ##  #> 2>#q# >1 +    Xt>X -X##+X>#.##> ###X## X    ##  # +X## XX  X   >-X yf",
" #>  >q>O#y>  t>#>1X1  X># O#  # #w3# XX  1## >1X XX  +O#1 3=1#o    1 qq   >X+# 9#XO    >2 >#X   X# XX   >>w2 #   ##>#X##       ",
"##XX X-+#X1# #3 X 1    XXX# ># #>   + #    >3#3>#O#;#X> 2>   #->#<3 wHy #X#  #> ###XX#X ># >        ##X  >>3<X#=< X -# #1  ## X ",
"X  #       X#>3##  XX>  #++ X  X> X  #> X  X1X# # #>X # 2# X  >- #2 qS1 #OX X <# #X#+23;O  # wX  X#y#1# >#   # yk >+     >##X #+",
">#>  ##+#+>  3 q# ##=1  >2X##X #    X## ## ;#   O #>       ### X#1 X#  #    X   XX X##11    Xt#  X#t#22 ## O#=&g8 ;X- hM <>  =<q",
"#>>    #>> 1h1 >   X    #;  # # f3 X+    1##> #  . 1tt   #XX  #  w>  1#  XX   q3 O  #  X##3X         #.  XX >  vXX    yy 33  #>=",
" XX2# +<>> 1u    X  22   +1   #3l6 X#    #3# X#X##X>33X  #    X32 XX X  ##X  #q3 #      >#1X  13#L= #X X1o   q1>X ## O   I` ##X ",
"O#+>  X###X  #   ;O q6   ##o # 36=# #-X#XXO  X #q#X#  #.    X- 3q       ##   -#>   ##<# X  XX >1 v# ##  ## > lh # :#  X3 VU#>> 2",
"##  >q3 #qX ##  #>   O  #    X #1# <> +23  X##  ##X  ##+o .X#>   # O#        #X>   2391># -#X   #  #X    XX+#<3X;> ##X  X +  >81",
" ;# 3t 22>  #   X# ## ###>+X  #>#  1   ##X  ># >##  2 #>1q X>##   ##XXX>>>    #XXX    ># -#X   # #X>  X    #q    # ## >< # ty > ",
"Xqy   #9q> >XXX O  #X+2#X#    #  X##3##  #>#1  #>+XX1.2323  >1  w1 X ### # X #f X-# X   ##  #  ; #X   >;   XXX>#  >   ## # xC  #",
"X   XX    X%#  83uw # X    XX +##>X#3#  OX ># 3w# #    #  # XX 3w2   #  q>  >#   X; 2w# . # ##  XX#  >>  <-#X  #;#-XXX  X#X XX  ",
"  #+X#1#O>#. ;#  >#  #   XXO>#  1o#X     #X  X1% X+ X # ## >3 XX ##X -w y322  3s X + 1X1> X 11    1> # X #>#+X+##X OO%  OX1# #X ",
"  XOX 4y  13XXO  ## #   #><XX.    3##X;XOXq>XX 1# #O    ## ##   X >X251 %X## >gM ### oX##;  o2##3 ##X #># ## XX#X  #X X O #1. 1#",
" #X>1 .+   # XX #>#    X#  ####   #>  X X+21 X#X >=1X      X#X  XX  ># #    #2  #X# o.   X# #= #-   1XX> X# O#   X##X%XOO X >#2>",
"+X   >X     X#O+#X       O +#>1# X   O #   #X#1%X=#>#  X  #>#    ;>3>  X+X>X 1## X X>#    Oo=# X 1oXX +#X#>o XX#1#X 18# ####>o  ",
">->X1 2q X# +##- w1#>#  >#> ;2#X    #### OX    X>   O >X  1#   X#+ q1 X    X2>>    #  #1>X    #>   X> ><3 #1 X# X #X## >>X+  X#O",
" 1y = #23# o  X# =<r1>  #+#X 13-X  -2 # X  X    #  1#X<>##> X#1>  X  > >+  +  # X## X  #1###X  1#o>6t#+%#   ##  X### X >#  XX## ",
"3 o#XO# & >w# ##X ## X  #1 # # X#  O # #+  X   ## #y##> w1  #> XOXO#X#  <O#+X>X3>#  #    #3>   O #pl ##   X w2 X +###XXX+X  # qw",
"1     X   >> O#      X#+#1     XX XX 2.#1#  #+#>#O%1## X   X    >w   >- >>>#>w>q- >w #1X >2>X XX###1    + X q2X O ;       = 34>3",
"   XOXO##1 sl #>XXXXO ->   #>-## -; X  #X%  X >1  #<+  1   #; >X>2>#   ##> +< 1 XX2y <8  # 23  >3t> o## 32 #     O  ;> +## lz$  ",
">X  X # &< gm  >#>8   ++2h6 3< XX;# O #    X#O12XX#2  ##X# #<>1X3>+#1XX##XX#1+> #1   X   # # >#X231.#1> 1> <#   XX< >2 ## Xvi #X",
"w8 X#1:X  >  X #X##   X 1h3 .X#     XO> ##  >#X#;1#   X#  #X-#  # XX# ;>   #> X#% X# X# X.   w2 #  #  +X  #2X + # k1+> #- q2 3X ",
"11# 2A3 Zs >O XX X  #  #   >###o# XX X##X>#X    X  X   X13 X#+#  #1X #%+ #    >X#  >#X wq  13# XX.#X  # X X# X1+  3## X    113##",
" X# #s> Mt X#1  -#; ##  #2%+># tf##X  ++  O>3   #2+ >+X >6 X  +  q3 #XO#X   O#   #-+OX 32# t# O #   ####>#    O  1o ## X1#X    #",
"#>#X   w6 # 1# X XX X X 22>#6q#12>2#X XXO#X>t . Ow>X2##  ## %  Xo>1 ;> O     1q X#;   X  ## 3w   >> # +OX#X XXX# 1#= #XX1#X ky #",
"   XO> 2q #> X o<   +X   XX #32   <  X  #XXX     # X#    # >2 ##X  ;#>2 ##O0 uL #X# X#  #-# fh #Xy9 #X#   #+OXX 3t XX##  #3 22X ",
" X+  #.   X2o#>   1######X X 11##  31 #3   +XX# X >#     X#w>1# q3##X >X  #q#2q -XX ##   #OX- +##>  #X;X#1X  X 3q2   ># 2  .  ; ",
" X >>   >>># % p^Xo> >>  38 ##X #1 23#3p ## o#X ;q2 .#3XXX#X>y  #>. ##X   ##># #X O#X##  # XX#; >#  #  +X>##X  #% X  qw@ A)t >  ",
"# #># 1# 1q1 % g^X   < 2u33 #     #  13# >1     #p2 #+;. ##   XO#1 1<#  ### # >X XX##;  ##  #X +## +X  -3>O#  #  #X1X  1 m!q & X",
"#X;## 1>>> #X -3, Oo## X2%  >> >># 2> .   X O#X+#>2>X ## #1o >q #6 &1X# ###     #X X> #O #> #XX>1    O  q3 ###   >## #> O4  #XX ",
"        #+ +## qi  #<=    X     #> 3> XX +# >> X# X#  61   12;4  =yw #:>X    #        #X X#  #  1  X X+#>;X 3w  ;%#2 >2  my #   ",
"# +X####  #X# X>  13f 4#+ >>#          X X    #X >##+  ## 1w +    X#X  #.##    #  X     OX #2X#>  oo###X>3X##>#  >  13f    X #1X",
"# X+#># %1#X > Bl >  <#    #X  #XX    1X##X  X   # 1>     #oX X  X       ##< X;X    X XX X # #<2y=X #XX    ##X1>## X#.3+   # #1#",
"XX    # .# X#X#1#   #>X     ## 2>   X+y##   #  #1#  #2  >  X>#  X #X## #X =t1 #qy   ># X  XO  X>v =1  # X # 63 1#X X#  X X>>O #>",
" XX  XX  %, ## X #X  #  # 2<#3# X      ##    ##>tw X##X 1  #X+OX  o  # ##  # X#9+gE  #  qM: #2#  #X>3t# #  +>#  # 2#;##  1y>  3v",
" =#####2 zb  # ##    >o   ty >#    #XX #X +O >q      ##2>.# X #> X 6< .2#  # X>  qvqt 3 gQ3 12 13# >yq O OX   11      %> # X1##>",
"O1 #-##q<>q,X  Xo= 1 12 ##. >#XX   +-# #  O #  >>>> # 1< #O##  Xww II  #X##X3 2X>  qq w3   #   33 XX<3  O#  #XXqX  oX >##3 3y<X ",
"X ##+2X    .# #=#t  eL +###;##  # XO >4># #1##   #. 1X## # #;   38 BB   #;# >1> +.1  #  >>   #  #X #X  #>  X - f2 11#t2 21 #O  X",
" > # X#X#=  >=   ## z` %# #y> # X 32 >2#X =1 < HI  =X>.  X1## X   >  X X   # 93 ##  #  #2##+X#X 32 #>#### #X### #.#X;9# >   #  X",
"g <o #>>%#X#+1>   31<cw>  O# 31X X+>>        3 /]  #  -# X# #    X 1>## q# #X  X #X   #1#OX#&& X#  XXXO   #X>##X##      ##X ># #",
"M q% <#>y< ##3 Pz #>  2# #   >##q> <#y3 #    = ac  X X>O     X #     #  w>      # X#1#  OX  #& XXmq   >  #  + X   t2 >X  O+#### ",
"X   #  #w> # = bi  XX2 X>XX;# X  ### yq X #XX>#   oXX+#X# #3# # X>#   1+ X  XX ##XX#=     -># O##Kt tt   Xw> #  . wq ##OO# >X >#",
"  _Y 4## X#># o  % ###X#> X#O>#+3>- t2 #X    >O=> XOXX   >48X O>>2#   3XOX # 1#   -=   ##>  f O>>t  qw>## Mk   # #1q#++< X #XX#X",
" *_Y 4o##X ##X >>X  :#  X    #  (l >1>  X#;#  >#  ##  .3 y3 ##     #X  X     #  #X1> X##> jJ2  3> X  X<# Xw3    3okl## ##  X ## ",
"#     X#  X +=    yM ##<   + #1XCu#+    XO3q21X# >#+  X# ## ># nM19 #       #X  XX# X+X ;<jJ  #># >q X+X>p- X   kt q     X    X ",
" >  X# 1wO >X   >#2wX3>9  #>X>1< wV #6O#  XXq4   ##   X   XXOX ln>3 X+X #>   #;X   ## >> >  .X#   #>  ##12#>3 >=%2# X#  O   #- +",
"k =# #3#1# >#+X X#1 #O#X # ;2  X112##1 X1   >#X 12  X# t3X   ##      ## 3# #y #;# >2; ##      X#  # >#- ###-3 11 .2  X# #  #  # ",
"wO    #- XX  ## 3q    X#X 3w>O #O  # X X<#># #  >3#  # pq  X#># X 2qX   >#  w X# +OX#  +X  ##O##  X X#1>X %#+ X ##+1>X X  ###> t",
"3>X#  # >#    X wq  oo> #q>#  - 2# X X# ##X;X#1#.        oX#   +# ##>    # 3q 11> X-->+    #X #1 +#  >>>1>  ;  XX +23>  X  o # q",
">+>O X##X ##X   # >  1#otC8 >#X X X ;##;>2 X#X>>>XX >2 # X##    >       X# >q1 #q># ##X#X+>+  33     XX #-# ###   ###>#+ pq # # ",
" #X3X #>1#>># 1w  #X#  >1X# +X X    ### >>      +  ##>1#   ###32 yq ##X;>o 33 >3;>#>XX#   XO #X #XX  +X## #X X##  +X  #<>hh 1X# ",
"X>O## ;>#  ##X>#  ;#2> X# X        #  X X    X##   q> 1#   + X#+ q6 1X X   O #>>+#3 X>+   #y#   #>39 # #X 1=13 =-  >>6 wv   #X #",
"   ##XX X1    1#   O +++>>##XX# X ##XX#1X  X##;# XX  X #    X   XO fw X ##;X# 1>>tf  X   12>   ###XX#      XX>>#   X y3  X  >>X#",
" X+XOX #1##+X# <XXX## O >>X1+.oXX   #>#w-o <8%#O X X#=X#X >3    #>XX;#+   q;   Sy o  ##X 1<#X X1 2#   +X#XX 323q       XXX 1w>f>",
" X#   #w3 3#<1X; + >X  ### #3    +  X   ># #1X##+ #q1#1#+ 3p #X    O##OX##XX <tVw #  X-#X    #o2 +X-+XX>t> ##o#    XX#  #X##  #X",
" oX  XX<<#XX  #1OO <XX  XX#91OXX #O  OX;1 ### 83  >>oX#1#   X#1   XXX X+X#  X#X #> X# #1#2 V61  > >#+#   ##O  ## X#> XX X ##   -",
" 1O  X     #XX#--X#2## X# kf # #XO   X###-q   -#;####  ># 12##%# #+X#=XX+ .   #13>X+>X>>X# `h &#-#X  #   q3 ## ##X;> #>O>   X ##",
"o>.      yw  #  3>  X- #X >q1  XO mq  #+X#>  XO    # <# X#+X21  #>#  1##1   q2## X X##  X #6  2> X ##      X;% 1< X  #X#> # 3w# ",
" X t1 > #Zk >#  %> +##X#X X2=   # Zy   X#  ;;X ##O#X5k1 #    #X# ><  X+XX # kt #X.  #2>O#    X X#  -21 # #X XO#11X +- X  X #   #",
"   w> X##2##X #O# # #  XO -#   XXX .#X+   &6X  -X # 01+X    #3  ### X##   # ##1 X##X yw   #1X ##XXo >131#1.X 1%2#   2 Xq2 3X>Bw ",
"  #         3y  2=  Xo>###  O X>O #1 X-  >>w XX  XX X.:X ;# ##2219 X#>>## OX >>  #>X 1>  ##X  => #2 X   #  O 1# X  ## Xwq 2 g'B ",
"> ##1# X #> yh>211 XX#> -+ O  XX#%  <# 21X >#    ##X>1 ### ># 1q>3# XX#>>+O>## XX  +#  X#  X  #1 #3  .q;   X   # X 22 #  ## >Mq ",
"<X;2 qq X  >1 33  #X  ## X#X#X  # ft;X >> #6o #   X       X#>X##>     #>># >X #X   X # X##XX# #>#>1  2f1 X #>#  X3# #  X XXX2  #",
"1 #X ;q### +     X1 X -# #3O#># - ty  ;X  <5=##o> #-## # > X#X#X  X 3< X  +O  +#2 1; O X       >f=  #3#   2#1> #t# qXX-  XX 34# ",
"  #  O##  X X .2>#X #O   ##X X 12     # # <Hp >X#   XX #O ### #6X   1>XX<X  >X >q XO##   >2++X #1  1#  X  3#   #<  >X>3 X  #X #X",
" #3> X +>  X X 2  X#  >8 X#  #+###   # #e v{~ y #qX   #  ## ;  <O#XX    y#   # X #XX##   X>#-  #  o1#O##X;1X  #X ;#  39  q2  # #",
"2 XX   X1>##+X ;Z ;3  qh > ##>>  #X X X 1 6^c 1 ;#   # # >1  11#>  O >y>XXX3 O# X  ;>O#XX  X  w# XX ## # 2< XX   X  OX<O 1> O ##",
" #   >+  #+ 1# >y X X   >1# #. #X X   X   #f< XX     >       >3-X3t ##y# #X<X   ##>- X  1#XX##1   XX  X>#   X XO# Xy;3+X#.    >>",
"    X##X tq #      #3XX 1##   XX +XX > 2X #6= > yg  w# X## O X## qt    >2## ##  +%1# X#    #X 3#X OX   ; >M3 ->>  #2>3 ## =1XX X",
" X        X   w1       X  +>###        #  .   > 2q#  #  #  X3O  #   lM 2q&  #;>       #  ###O > X   uw # >w#  X     ##<# O#;>>;#",
"    #>X XXX  #6#  X  ko #  32  q1X  X# X> ##>#     3q   X  +#X   X# wp   O#+2#   Xo1> ># >>  # #%   #>##      >###<##  tw #X<#  ",
" # o 3gq  +X#1X  kt >3# 2> ## +3= XX 11o2< X  #  # #2    X+#     X &  >##1#  +X    ## 1=  X#>+#  X ##   >=>>w> #  #%#  -> X     ",
" 1##  nM t  #    4q X #X>%  wq   #;  X23X1#o X#   #> #X  1>X  X  1# X ;O #  XX  X   >#   > #>OXX# #3    w3 #f1  X1  #XX    #1w> ",
"  X X+  1q2#   X  #1 ###>=  >g6<2  >#< <X  >p=  # 9t X #>#>>>#%X #1o ##  ##XX#  >3 X>#   #  XO 6G >X # ####  #  X>  X 1# ##1q#3>",
"    X# #  >#X#  ## y#   <1X# Mg 1   >> 2 X 1h> # X #2+ 61 >#X#;X >>#>>X#> X#   #3t ##XX #+XX+X 1y   #X  1#    X       3# X#X  O#",
"  X  1= tt    >#XXX># ##  X.# #  X   #2#X #   #>o ##>XX #q  X## >> X;X >3  XXX #O X  ## 32#>X ## #X.2 +q3yy M6  1#XX 3w   >o<2>#",
"   # #XXqq  ; #1X   X ;# X  qq XX  2> 41# XX>X ##  1  + >y 1X  #  ##  #  ;> #   X###X-+  X>>  X#>-1#  >t 3k ^l 1>### tk #X# 23# ",
" #1## X>  #X.+ X>X-1X>X O >1 ##X#X wy   #X O1 X#  Xw> >###21 >>  X> >>X X-## ##  #+2- >  +-+ #  #### >> -qX >X #   #>  X##1   X#",
" #3 3 #8>>#X  #>21 X>2##X <1   X    1>>X#  ;#  11 #3> ># 4f >kp  ## 2# #  X# 83X1XX># <2#++XX  XOX# X2# -u4o  X #X#X  X  #1 # X>",
"X   >#X21# X#  X> qq ###   X># ##    XX   ###X #;X ## ## 12 133.##  1#  ##   > #<   X #3 q3  # ## > ## #1 ###  >1  #X     X# ##X",
" #X   X#X ##  >>  t3 # Xw# ##  XX#X X   ##> #X   XX # %2X     13 #X q>##          1#X2<  1<#     X   #X 21X  >## qt>3 #+  w2 #  ",
" XX  >      . ty #   X >r#  ##   ## X X  3# +X #3# X#1>#X#16. 23    ;>># ;#  X# #1#=#>>##   qOX ;  1X;# X #X#11  wy ; +X #y3 >  ",
"   ##X >3#f3  ##   X> ##>#> X X   #   X  #  #+ -q# #X>#   <y=3 X#XXX##. #t #> X yt oX 13###q9OX #X+>   X  >#%# #>   #<   X-X #X ",
" X #  X>  Zy q  3f  1   #>#  X# t3 #; # X O### 2wX   2#>## ##1 #+ # XO>  ;3X>   #o ##O#   O3 X## X># X#  X# O >2X  ### X +-1# X ",
"   ##1#   #### #q3X  1  @> :### ;# #3   X +Xo1 #>  1 ww   13  #X    +XX   1  vk # XXX   2## +# 9# #O   X   #X   X33y3 +  X;###  ",
"X%O## #XX#  X  X# #q 3w-3# >##X+  >##>  +X  ty##   #>   #1 3#XX#>#->##     > t4 1   # >q>.# >  XX X  >X ># Xq fR  1   X   #X  X ",
" > >; X#1X >#  ###2# ###> #5#2# 3-#  +>X    zl #      X ww  # #q#o#X    X #>  >9 #  1=1>#2# >3      +X# 1q> 1 yD    X-#>q X wq  ",
" X>11 .#   .X ##    %##   X  X2q >#X  3# # X  33 #    #w#X# X# 2# #   XX#     qy >  3# >X   #> X# X+X  1#X#  ;  X #<;;X#q3-#q>t<",
" +>#1 22      ##    ##   >q   ;2   X  XX  1> # pg     X1 >  X  > >q   #O#>  >  +#X#  >>>#X #  X## # ># >>X fq X# t#      ;#X  ;>",
"2     #>23  X       #X32 #X #1  X#X>># ##  >  #$xx  X X  M> # ->> 1=    < wq #X#1o#X >1X ##X >X   OX X  +  <# 3# O  X# >>X- X >3",
"###X    ## >;  -    3 32 .#2>     >#        #X3 hF  <>X##>    ##X #X  X 13>># Xo1X # 1wX #;   .1  ##     XX  #>X   X XX13### -<#",
"#;#X# X   X =3  #XO X     XXX #O  ##  >>  t% #X#    OX       X 3w      XO> 2A #12 -#X>##X     #3 Xwy             32   X  X   #  ",
"q2 #+#> -X  >1   X#  X -# #   ## #   >32  32 X>+#e1 #X#X  >< -#>3#  +  w1 34p    #> O+X-X #;  #>  ># 2X X  X # X####X       # ##",
"  X>>X  ####      X# ..# o>  #   +X >2  1> w#X   2; #X#XX#-# ; +8>  XX#3> ft X     ;#X# >3># ## q>  >t#O;X#>X# 2  ;Mq X #3%+> vS",
">OX  ##   ##X ######X ##X   X >1XX# wq#X#1 31#>## >#XO  -wX O##    XX#21    #X#  X  #>+X>3#  ><2t1 # >#o>O;>   >#1:z> O >t> 3 lS",
" XO X>#    X 3q>X+X# #>    .  >1  X #1 X   >>+#1>X1=oX   2##>X %# O XOX#     >2%OXX<>  -  1#X# 2  X###-    XO   2M-w XO#  >>X#  ",
"      <-  #X 31 #> <+;> 7H7 =   X   # f>  XX  X 23X#1X #O  ##  26      >   X2#XX   q3 q3  # yk ##.X  X>>O #     >t    XX#X >##>=",
"  X;+X2>    #   12  #   6b4 # 1o.#  2 M3 #9 >#X >>1    #1## #> ##uy # ##    2  ++X  X 14#   qt >> #+#  #  ##   ##  %X   X# X ># ",
"  X1>+  XX #  # X#+# 12 # >q X<#X  ##    X> w8 1X .2>   3 Xq>t#  wq OO- X    #>  XXX   ### #  >#>  ff 3=1    XX>># 3> #X >1#    ",
"  X  X2# #  q# # #>X qk 3, #  #    XO  -#X  #;X>>  11X>##X#1 2 XXX #X  ##  X XX    X#X   1# #>#  Xvy>3f>2  >#2#  Ow##+3# #  # X ",
"X#    ##>#  2> X#X   #%      X###XXX# 8h81# X>X X X   2  >O  #  #>##   X #    X #>  OX XX## 1##  #v> 1XXX##>%;  ->>X##q2 1hq ## ",
"XO  >#  X X  #X X   X  o. +  X X# #- pu+#X   #  X## X.  XX  #X #O>3# #% ##;##  X#> >3X   X> #o   #  ##     #  # 33 X#+X# #kq #y1",
" X  w3 11>   # >2  X  11 .#X###;X  OX>;     +   >#O;     ->#># ##+-# X2<-X1>> #OX# >1    ##  X  #   X -w>  #XO>###  X  #    1###",
"O<# #X#>#:  + >3#fy X#62 X  +2>   O #  #XX+##   .X#>X X+-X>>    #  q> >q#>11X # 1#  23  XX32>3  XX# # Xy1 X X<# X #XX2 ##XX>q33#",
" X  q>   X - <t##<> #1##     # tw O#3X #      #X+.2q   >w> ###X##X#+ 11 >  #   ##  X 3w> ;2<;XX  #: ##+  ##X 1>   1# +   ###o2y#",
"X   #   #X+tqwfX      XX#>X    3> X O     X #XX ; 6ht    #  2# ># X   O> CW >  O  #; 2q ;<1#    # #>  # ##   X# #2#    X #X  X  ",
"O+  XX1X#; >w  # + 21 X#X  ## X >wX        O# #O   yq##    X #    # q3 # fD X#O  -#X+%1 #>+>X  #3 = uf #    #X X#1# ## ##       "
};
