/* XPM */
static char *_620310807678[] = {
/* columns rows colors chars-per-pixel */
"48 48 46 1 ",
"  c #010101",
". c #080707",
"X c #0B0A0A",
"o c #0E0E0E",
"O c #110D0E",
"+ c #151F0B",
"@ c #111111",
"# c #151111",
"$ c #151514",
"% c #171817",
"& c #1B1B1A",
"* c #1E1D1D",
"= c #21201F",
"- c #1C2220",
"; c #212122",
": c #242322",
"> c #202723",
", c #262625",
"< c #242B26",
"1 c #292827",
"2 c #282D29",
"3 c #293229",
"4 c #2C322D",
"5 c #2C392C",
"6 c #2F3631",
"7 c #383735",
"8 c #303E30",
"9 c #323934",
"0 c #353D37",
"q c #3C3C3A",
"w c #374139",
"e c #39453C",
"r c #3D4C3E",
"t c #3E4540",
"y c #424B44",
"u c #455445",
"i c #4B554D",
"p c #4F5952",
"a c #595A57",
"s c #5B6553",
"d c #626D5A",
"f c #68755F",
"g c #68706B",
"h c #6F7871",
"j c #777C7A",
"k c #80807E",
/* pixels */
" frrri<990weewereerrrrrrrrrrrrrrreeree006-ferru ",
"fsweeu-wwwew00weeeeeerrrrrrrrreeeewwwe006-fweewf",
"8588wy-8888858808wwwweeeeeeeeeewwww885558-d88885",
"85588r  ......XX.XXX.X.XXX.X.XXXXX....X.  d88555",
"88588u X@@%$%$$%$%&%$%%%%%%%&%%%%%%%%$$%&.f88858",
"rrrrruo$@@&&&%**%$%&%%&*&&&*&&&&*=&&*%*&&@uree0w",
"%&& .@$<%o$&&=**&&&**;;*==;=*=*==;***;&&3@$. @@$",
"<>3 X%-><&%%=%%&==;==:::;,:;;;:;,,;=*&><3>-XX6&>",
">&< @%>5>3-$%*%&;::,::;,,;,::,,,,:,,=-<38>@Xo3%3",
"--2 %&%<5<3&@$$%&&;,,,:,::,,,,1,,,,:-335-%@@@0-3",
"<>5.$$&$>553>$$%*&:,,,,,,,,,,1,,,,=2358>$$@@@q-3",
"53wX%&&%%>5<<-@@**=,,,1,,,,,,,,,,;235w2O@$$&$y<3",
"85eX&&**&$>5<<-@%*=,11,,,,,,,,,,;285w2@@$%%&%s55",
"wweX%***&%@&3<5<@$*:,,,1,,,,,::;6w0w2@$$%%&=&d88",
"8weX&*=**&%@>346<$&*:,,,,,,::;;6eww3@@$&&&;*&d55",
"60rX&==:*;&%@>489>@%==;,,,:;=*3rre3@$$%&*;;:=s88",
"wwr.%**===&$$@>049<$&;;,,::;*4ewr3@$$%&&=;:,*f0w",
"rerX%=;=:=:=%$@4wer2$&=,:;;*2err6@@$$&===:,:;dww",
"rerX&*;=,,:=*&%$4ery4$*=,;=4ety4@$$%&**;:,,:=dww",
"rerX&&=:,1,,,==%$4yuu6$&;*6yyy4o@$$%;=;,,,,:*dww",
"rrr.%===,,:,,:*;&@4uiu6%%9iui9oo@$&;:,,1,;,:&few",
"rrr.%&&=*:;:,;,**$#4uyi44piy6X@o@&%&*:,;:=::%fee",
"rrr%35358888888888855555555558888888888855853dew",
"rrr-0wwerrrrrrrrrrrrrrrrrrrrrrrrrrrrrrrrrwrredew",
"rrr>wrwruuuuuuuuuuuuuyuyuuyuuuuuuuuuuuuuyryyrdww",
"rer-wewrrrrrrrrrrrrrrrrrrrrrrrrrrrrrrrrrrerregw0",
"w0e..X..ooXXoXXXoo.@&--@@&&*o  XXoXoXXooXXXX@h08",
"88w.$%$%&&&&%&&&&$>694;.X>966;X@&&%&**&%%&%%@h88",
"88w.$%&*&==&=*%&&,996<o@XX>069,@%$&=&;*;&**&%h88",
"88wX%&&&*=;=*=*&2w992X@o$$@>004>@$$*&&===*;*&g88",
"558.&*=**:;;==;600e2oo@o%%@$<990,@$%==&::=;:*h88",
"535X&&&=::;=,=3rwe<o@$$%&&%&$2099>@&&&**,;,:=h88",
"538X%&;;:;=,:6wrr2@$$%%&=&;&%%2ww6>@%%;*,:,:;g55",
"888X&*=;;;=;4w0e4@$@%&&=;*:*=&%3w88<$%%;:;,:&i<3",
"345X%&;;::=400e3@@$%**;:,:=:=*%$<w88-@%%*,,;*a<<",
"<<<.&=;=,,38ww2$$$&%==;,,::::&*&$<558<%&==1:*d33",
">&-.&&;::2888<@@$%&*;,,:,,,,:;**%@>558>$&=;,*7->",
"-&-.%=;*2558<O@@$%**==;,,,,,,,:;&%$>555>&=:,=w-<",
">%% $=&23<5>@@@$$&*;:,,,,,,,,::=&&*$>533<&=&%0-3",
"&%&.X;><55-@@@@$***,;;:,,::,,,,:;;*&&>335<@%%q->",
"-%>.$&<3>>o@%$%&*=*:;:,,,,,,,,,::::**$-<33&$@i<5",
"&$& .X%3-$@$$&&;**&==:,:,,,,:::,,,::=*$&3%+o >%$",
"dsssdu$-o$$$$%&**&&*&*;;;,:;:;;;,,:,;;*$-%fspppp",
"85588uXX$o$%%&==%%*&$%&***=&=:=&:==*:;*=oof85555",
"88588y.@@O$%@&%%%&&&%%&*==***=&&*&**&$*=$ d88555",
"8888wu&3533333<>>>3335588555553<<33333553%d80e85",
"w80erp>48w8w85554458weeeeeeewww88888w0050&ferrrw",
"Xjruus<9rwrrrewewwryuuuuuuuuuyrrreryryr0w-kuuuu "
};
