/* XPM */
static char *_613376248408[] = {
/* columns rows colors chars-per-pixel */
"64 64 230 2 ",
"   c #0E0E0E",
".  c #160606",
"X  c #170A06",
"o  c #190B05",
"O  c #150B0C",
"+  c #190D0A",
"@  c #0F100F",
"#  c #0A0B12",
"$  c #150E11",
"%  c #131314",
"&  c #181517",
"*  c #141419",
"=  c #1A1519",
"-  c #1C1B1C",
";  c #240E05",
":  c #250F07",
">  c #261106",
",  c #2B1305",
"<  c #2F1906",
"1  c #251309",
"2  c #2B150A",
"3  c #2D190D",
"4  c #311604",
"5  c #341904",
"6  c #3E1C07",
"7  c #311609",
"8  c #331A0A",
"9  c #3A1D0A",
"0  c #231617",
"q  c #2C1C12",
"w  c #321D12",
"e  c #3A1F15",
"r  c #28200C",
"t  c #3D200C",
"y  c #22221F",
"u  c #342114",
"i  c #3B2315",
"p  c #382C14",
"a  c #36241B",
"s  c #3B261A",
"d  c #3D291D",
"f  c #171A22",
"g  c #1D1D23",
"h  c #261E24",
"j  c #242323",
"k  c #292727",
"l  c #24252A",
"z  c #2B2A2B",
"x  c #332826",
"c  c #3B2B22",
"v  c #31312F",
"b  c #3B312B",
"n  c #272936",
"m  c #342E34",
"M  c #343433",
"N  c #3C3935",
"B  c #363438",
"V  c #3B3B3B",
"C  c #401D06",
"Z  c #421E09",
"A  c #422106",
"S  c #4D2302",
"D  c #43220B",
"F  c #4A260C",
"G  c #4C280E",
"H  c #532603",
"J  c #5B2A04",
"K  c #552909",
"L  c #5A320E",
"P  c #432511",
"I  c #4E2B12",
"U  c #432B1B",
"Y  c #482B18",
"T  c #512D12",
"R  c #522F18",
"E  c #403018",
"W  c #483818",
"Q  c #5B3413",
"!  c #573F13",
"~  c #52321D",
"^  c #543C1C",
"/  c #612E06",
"(  c #632F09",
")  c #663106",
"_  c #693307",
"`  c #673208",
"'  c #6A340A",
"]  c #6D380D",
"[  c #653A16",
"{  c #6C3B14",
"}  c #733C16",
"|  c #442E21",
" . c #4B3324",
".. c #42342D",
"X. c #4F392A",
"o. c #533524",
"O. c #563B2A",
"+. c #453834",
"@. c #533F30",
"#. c #65461C",
"$. c #6C4219",
"%. c #67481D",
"&. c #6D4C1C",
"*. c #73431A",
"=. c #784618",
"-. c #6F501F",
";. c #74521E",
":. c #5C4020",
">. c #46423D",
",. c #5C4539",
"<. c #664B22",
"1. c #6C4824",
"2. c #64452C",
"3. c #744A23",
"4. c #744C28",
"5. c #795522",
"6. c #7D5822",
"7. c #2E3243",
"8. c #373947",
"9. c #343749",
"0. c #403F43",
"q. c #454444",
"w. c #494746",
"e. c #4B4A49",
"r. c #57514A",
"t. c #535353",
"y. c #595857",
"u. c #5C5B5A",
"i. c #635C57",
"p. c #65615D",
"a. c #73695E",
"s. c #636362",
"d. c #6F6B65",
"f. c #6C6B6A",
"g. c #7E7367",
"h. c #747473",
"j. c #7E7D7C",
"k. c #864A15",
"l. c #8A541B",
"z. c #965110",
"x. c #9C551C",
"c. c #985A18",
"v. c #A64C1E",
"b. c #A65B1B",
"n. c #9C671B",
"m. c #B96D0D",
"M. c #B5760E",
"N. c #A86617",
"B. c #A4641A",
"V. c #AC6B1C",
"C. c #B36B15",
"Z. c #B96619",
"A. c #B46D1A",
"S. c #AB7313",
"D. c #AA751A",
"F. c #B37115",
"G. c #BA7616",
"H. c #B47C16",
"J. c #BD7B15",
"K. c #B4731D",
"L. c #BD761A",
"P. c #BB7C1B",
"I. c #984B26",
"U. c #8A5725",
"Y. c #825D25",
"T. c #83532A",
"R. c #945823",
"E. c #905C34",
"W. c #A15825",
"Q. c #8F6126",
"!. c #8E652C",
"~. c #936427",
"^. c #8F6730",
"/. c #936C35",
"(. c #99753E",
"). c #A56526",
"_. c #AC6B2B",
"`. c #AD7920",
"'. c #B37B23",
"]. c #B97825",
"[. c #B67A39",
"{. c #C46C19",
"}. c #C47514",
"|. c #C17A16",
" X c #CB7D13",
".X c #C4761C",
"XX c #C27B1B",
"oX c #CB7B1B",
"OX c #D27D18",
"+X c #C86523",
"@X c #C27B24",
"#X c #C67925",
"$X c #9B7A44",
"%X c #88796A",
"&X c #837E7B",
"*X c #A9830B",
"=X c #B78418",
"-X c #BB841C",
";X c #B98724",
":X c #BA8426",
">X c #B48035",
",X c #D68E0F",
"<X c #C48617",
"1X c #CC8A15",
"2X c #C5821B",
"3X c #CC851B",
"4X c #CC8D1C",
"5X c #D38514",
"6X c #D58B18",
"7X c #C7911B",
"8X c #D79817",
"9X c #D4941C",
"0X c #DC931C",
"qX c #E3901D",
"wX c #C68824",
"eX c #D58722",
"rX c #CB9028",
"tX c #D89625",
"yX c #C68733",
"uX c #D19837",
"iX c #E49B29",
"pX c #D6A52D",
"aX c #E9A937",
"sX c #9F804A",
"dX c #A0804C",
"fX c #83807E",
"gX c #C4934C",
"hX c #8C8784",
"jX c #B1A89A",
"kX c #CABEA8",
/* pixels */
"E E E E E E E E E E U p E E E E E E E E E E E E E E E E U p E E E E E E E E E E E E E E E E U E E E E E E E E E E E E E E E E E ",
"1.1.1.1.1.1.1.1.1.1.1.1.1.1.1.1.1.1.1.1.1.1.1.1.1.1.1.1.1.1.1.1.1.1.1.1.1.1.1.1.1.<.1.1.1.1.1.1.1.1.1.1.1.1.1.1.1.1.1.1.1.1.1.1.",
"E.E.E.E.E.E.E.E.E.E.E.E.E.E.^.E.E.E.E.E.E.E.E.E.E.E.E.E.E.E.E.E.^.E.E.E.E.E.E.E.E.E.E.E.E.^.E.E.E.E.E.E.E.E.E.E.E.E.E.E.E.E.E.E.",
"^ ^ ^ ^ ^ ^ ^ p ^ r p ^ ^ ^ ^ ^ ^ ^ ^ ^ ^ ^ ^ ^ ^ p ^ r p ^ ^ ^ ^ p ^ 3 p ^ ^ ^ ^ ^ ^ p o.r p ^ ^ ^ ^ ^ ^ ^ ^ ^ ^ ^ p ^ r p ^ ^ ",
"W W 1.4.4.4.4.^ E.r ^ E.O.W W W W 4.4.W 1.W 1.W W ^ E.r ^ E.4.W 4.^ E.r ^ E.:.W W W :.^ E.r ^ E.W 4.W W 4.W 4.W 4.4.^ E.r ^ E.1.",
"W W 1.4.4.4.:.^ E.r ^ E.3.W W W ^ 4.4.W 1.W 1.W W ^ E.r ^ E.4.W 4.^ E.r ^ E.4.:.W :.4.^ E.r ^ E.W 4.W W 4.W 4.W 4.4.^ E.r ^ E.1.",
"W W :.4.4.4.^ ^ E.r ^ E.4.^ W W ^ 4.4.W 1.W <.W W ^ E.r ^ E.1.W 4.^ E.r ^ E.4.4.:.4.4.^ E.r ^ E.W 4.W W 4.W 4.W 4.4.^ E.r ^ E.1.",
"^ W ^ 1.4.4.^ ^ E.r ^ E.4.^ W W :.4.1.W 1.W 1.W W ^ E.r ^ E.1.W 4.^ E.r ^ E.4.4.4.4.4.^ E.r ^ E.W 4.W W 4.W 4.W 4.4.^ E.r ^ E.1.",
"1.W W :.4.:.W ^ E.r ^ E.4.:.W ^ 1.4.1.W 1.W 1.W W ^ E.r ^ E.1.W 4.^ E.r ^ E.4.4.4.4.4.^ E.r ^ E.W 4.W W 4.W 4.W 1.4.^ E.r ^ E.^ ",
"1.W ^ W :.^ W ^ E.r ^ E.4.1.W :.4.4.:.W 1.W 1.W W ^ E.r ^ E.:.W 4.^ E.r ^ E.4.4.4.4.4.^ E.r ^ E.W 4.W W 4.W 4.W 1.4.^ E.r ^ E.^ ",
"4.^ W W ^ W W ^ E.r ^ E.4.4.:.1.4.4.:.W 1.W 1.W W ^ E.r ^ E.:.W 4.^ E.r ^ E.4.4.4.4.4.^ E.r ^ E.W 4.W W 4.W 4.W :.4.^ E.r ^ E.^ ",
"4.^ W W W W ^ ^ E.r ^ E.4.4.1.4.4.4.^ W 1.W 1.W W ^ E.r ^ E.W W 4.^ E.r ^ E.4.4.4.4.4.^ E.3 ^ E.W 4.W W 4.W 4.W :.4.^ E.r ^ E.W ",
"1.4.W W W ^ 4.^ E.r ^ E.4.+.3 q q 3 3 q 3 3 3 w 3 3 8 u u u u u u a a a a c d d c c c b | ..b ..+.+...W 4.W 4.^ W 4.^ E.r ^ E.W ",
"1.4.^ W W ^ 4.^ E.q ^ E.4.O.t F F I F G G G G G G G G G T I G I I I I R I R ~ ~ Y ~ ~ o.o.o.o.X.O. .4 W 4.W 4.^ W 4.^ E.r ^ E.W ",
":.4.4.W ^ 4.4.^ E.r ^ E.4.X.F 9 2 8 8 , 2 8 , < < 8 8 2 2 < 8 8 8 8 8 8 8 8 u u i i i s d U c | Y F < W 4.W 4.^ W 4.^ E.r ^ E.W ",
"^ 4.4.4.^ 4.:.W E.r ^ E.1.X.G 8 2 9 8 8 , 8 8 8 8 8 5 t 9 9 9 9 8 t t t u t t u u u u u s s | w 9 F 8 W 4.W 4.^ W 4.^ E.r ^ E.^ ",
"W 1.4.4.:.4.^ ^ E.r ^ E.1.X.P 8 D ` J / / / / J / / ) ) ) _ _ _ _ _ _ _ _ _ ] ] ] ] ] } } *.*.A 6 F , W 4.W 4.:.W 4.^ E.r ^ E.^ ",
"W 1.4.4.4.4.^ ^ E.r ^ E.:. .D 2 Z K 4 4 4 4 4 4 4 4 4 4 5 5 5 5 5 5 5 5 5 5 5 5 5 5 5 5 5 4 ) A 9 F < W 4.W 4.:.W 1.^ E.r ^ E.^ ",
"W :.1.4.4.4.W ^ E.r ^ E.:. .Z 3 9 K -.%.#.&.$.$.#.#.#.#.#.%.%.%.%.&.&.1.&.<.<.<.<.<.1.<.5.$.) A 6 F < W 4.W 4.1.W 1.^ E.r ^ E.1.",
"W ^ 1.4.4.:.W ^ E.r ^ E.^  .D 3 9 K Y.& = % % - %   # # @ % % = % % % % % % % @ @ @ & - v 3.J A 9 F < W 4.W 4.1.W 1.^ E.r ^ E.1.",
"W W :.4.4.^ W ^ E.r ^ E.^ | Z 2 r H Q.* % - k y - 0 l h & 0 t P P 3 + $ g V B m z M M V N =.J D 9 F < W 4.W 4.1.W :.^ E.r ^ E.1.",
"W W ^ 4.4.^ W ^ E.r ^ E.W | Z 2 t H 6.l j z M z z m l Y =.D.>XF.4X@Xz.k.G 0 m u.e.0.V V v ;.J A 5 A < W 4.W 4.4.W :.^ E.r ^ E.1.",
"^ W ^ :.^ W W ^ E.r ^ E.W U D 2 5 S !.V B z M B 7.h { XX{.B.D.rXrXwX}.].qXN.8 z >.q.M N b =.J A 7 D 5 W 4.W 1.4.W W ^ E.r ^ E.1.",
"^ W W ^ W W ^ ^ E.r ^ E.W U D 1 t S 6.q.M >.e.B a b.|.3XL.L.{.oX'.;X;X_.gXqX~.+ - p.p.w.w.*.J 6 8 D 5 W 4.W 1.4.^ W ^ E.r ^ E.1.",
"^ W W W W W ^ ^ E.r ^ E.W d A 1 5 S 6.e.v >.i.h x.5XJ.].W.].wX)..XP.].yXgX3XU.).2 h g & & *.H C 9 G u W 4.W :.4.^ W ^ E.r ^ E.:.",
"1.W W W W W 1.^ E.r ^ E.W U D , 5 S 6.k z l h =.OX1X=XR.b.b.=X-XP.A.b.n.l.n.:X#XQ.O j j j $.J A < F < W 4.W :.4.:.W ^ E.r ^ E.^ ",
"1.W W W W W 1.^ E.r ^ E.W d D 1 5 H 6.M l n Y 3X6X8X-Xk.x.c.B.=XuXtX9X=XU.I.:XwX[.e = m j *.H A 8 A < W 4.W ^ 4.:.W ^ E.r ^ E.^ ",
"1.^ W W W ^ :.^ E.r ^ E.W P Z , 8 S ;.y f n [ <XZ.+X Xz.x.D.P.b.;XL.K.n.;X].:X6XOXz.. 8.z *.J A 8 D 8 W 4.W ^ 4.1.^ ^ E.r ^ E.W ",
":.^ W W W ^ ^ ^ E.r ^ E.W d C > < S ;.* n B l.1Xm.{.}.N.b.1X=XF.F.2Xk.U.H.].A.oX].{., h j $.J A , D 5 W 4.W ^ 4.1.^ ^ E.r ^ E.W ",
"^ 1.W W W 1.^ ^ E.r ^ E.W P Z , < S ;.k 7.+.N.iX0X6X,X5X8X1XrXD.D.).W.c.Z.#XG._._.#XK = w.$.H A , D r W 4.W W 4.4.:.W E.r ^ E.W ",
"^ 1.^ W W 1.W ^ E.r ^ E.W s C , 2 H ;.z 7.+.N.6X}.8X3XZ.;X7XD.=X-X;X4X{.Z.x.:XrXL.eX=.% >.{ J A > A 5 W 4.W W 4.4.:.^ E.r ^ E.W ",
"W :.^ W 1.:.W ^ E.r ^ E.^ s C , , S &.B 9.O.C.A.OX,X4X|.@XI.A.<X7XD.K.Z.{.V.c.wXOXiXl.+ 8.[ H A < D t W 4.W W 1.4.1.^ E.r ^ E.W ",
"W ^ 1.^ 1.^ W ^ E.r ^ E.O.i 6 : 4 S &.q.9.2.D.=X5X5XiXm.C.N.N.1X4X=XN.rXpXrXK.).).yX{ $ u.[ H A , D 3 W 4.W W 1.4.1.^ E.r ^ E.W ",
"W ^ 1.^ 1.^ W ^ E.3 ^ E.&.i C , , S &.j 9.O.'.wXF.|..X5XM.*X*X<X2XF.b.eXrX XS.D.n.B.T & N Q H C , A 3 W 4.^ W :.4.4.^ E.r ^ E.W ",
"W W :.1.:.W W ^ E.r ^ E.4.i C , 4 S &.l 9.+.b.#Xc.S.S.H.|.8X8X5X3XB.k.H.k.XX1X[.[.z.8 h q.[ H 6 > t q W 4.^ W :.4.4.^ E.r ^ E.^ ",
"W W ^ :.^ W W ^ E.r ^ E.4.e C , 2 S &.j n 9.3.:Xm.<X8XJ.L.9X8X<XP.XXN.`.S.P.XXK.].c.o V i.Q H 6 > 9 3 W 4.^ W ^ 4.4.^ E.r ^ E.^ ",
"W W W ^ W W W ^ E.r ^ E.4.e 6 , , S &.- * 9.,.:Xm.4XG.5XaX9Xm.8X2X9XC.`.|.tXtX6XZ.K $ B >.Q S 9 > 9 q W 4.^ W ^ 4.4.^ E.r ^ E.:.",
"W W W W W W W ^ E.r ^ E.4.e C ; , H &.e.g l 8.T.oXG.4X,XtX<XS.3XtXL.V.8X.XA.tX.Xk.. z V M Q S 5 1 8 q W 4.:.W ^ 4.4.^ E.r ^ E.1.",
"W W W W W W ^ ^ E.r ^ E.4.w 6 ; , S &.M l % 9.+.R.5X XC.C.C.eXR.rXR.R..XW.B.0Xx., - i.w.y.Q H 9 1 9 q W 4.:.W W <.4.^ E.3 ^ E.1.",
"^ W W W W W ^ ^ E.r ^ E.1.w 6 , > A &.y z B * n +.;.L.tX Xb.b.} c.rX].K.#XA.k., $ z V y.d.L H 9 > t r W 4.<.W W 1.4.^ E.r ^ E.1.",
"^ W W W W W :.^ E.r ^ E.<.w 6 > , S -.z B q.M * n z 3.].H.F.v.W.z.3X6XA.B.[ : $ n q.w.e.w.Q S 9 1 t u W 1.1.W W :.4.^ E.3 ^ E.^ ",
"1.^ W W W ^ :.^ E.r ^ E.:.w 6 , > S -.z z z k j - l z c ! ~./.k.l.B.k.G 2 + g +.u.y.u.u.u.L Z 9 : 8 a W 1.4.W W :.4.^ E.r ^ E.^ ",
"1.^ W W W ^ 1.^ E.r ^ E.^ w Z > > H ;.w.e.t.e.t.t.B g f j k x w 3 0 0 O & j +.e.p.d.f.f.s.L S 9 1 t a W :.4.^ W o.1.^ E.r ^ E.W ",
"1.:.^ W ^ :.1.^ E.r ^ E.W w 9 : : S ;.h y 0.M v l V v y g - # # # # # % y z M +.r.a.d.g.%XL S t 1 t d W :.4.^ W ^ 1.^ ^.r ^ E.W ",
"1.1.^ ^ ^ 1.:.^ E.r ^ E.W w 6 > > S ;.p.s.h.s.f.f.p.s.h.hXh.s.f.s.s.d.h.&XhXj.&XhXfXjXjXkX[ S 9 > t d W ^ 4.^ W ^ :.^ E.r ^ E.W ",
":.1.:.^ :.1.^ ^ E.r ^ E.W w 6 + > H *.~.Q.Q.Q.!.!.R.!.!.!.!.!.!.^.^./././.(.(.$X(.sX$X$XsX$.S D 1 D c W ^ 4.:.W W :.^ E.r ^ E.W ",
"^ 1.1.:.1.1.^ ^ E.r ^ E.W 8 6 ; o H / / / J J J / / / J J ( / _ _ / _ ) ) ` ' ] } ] } =.*.3.L Z < t c W ^ 4.:.^ W ^ ^ E.r ^ E.W ",
"^ 1.1.:.1.1.W ^ E.3 ^ E.W q 6 > X ; o ; ; ; > > : > , ; , , , : , , , , , , , , 4 , , , , 4 4 7 8 t c W ^ 4.1.^ W ^ ^ E.r ^ E.W ",
"W 1.4.4.4.1.W ^ E.r ^ E.^ q 6 6 , 2 > > > > : 2 : , : > 1 1 1 : > 1 1 1 1 1 1 1 3 1 3 2 q 1 q 3 t t c W W 4.1.^ W ^ ^ E.r ^ E.W ",
"W :.4.4.4.1.W ^ E.r ^ E.^ 3 2 2 7 8 4 8 5 5 5 8 8 8 5 6 8 6 6 9 9 9 9 9 9 t D A e D D P P F i F P 8 b W W 1.4.:.W W ^ E.r ^ E.W ",
"W ^ 1.4.4.1.W ^ E.r ^ E.^ b o o + o X o + + + X X X + X O o o X o o o o o o o o o o o o o o o o o o +.W W 1.4.:.^ W ^ E.r ^ E.W ",
"W ^ 1.4.4.:.W ^ E.r ^ E.1.^ W W W W W 3.4.W W W W ^ E.3 ^ E.^ 1.4.^ E.r ^ E.:.4.4.4.:.^ E.r ^ E.W 4.W W W :.4.1.^ W ^ E.r ^ E.^ ",
"W W :.4.1.:.W ^ E.r ^ E.4.^ W W W W ^ 4.1.W W W W ^ E.r ^ E.<.4.4.^ E.3 ^ E.:.4.4.1.^ ^ E.r ^ E.W 4.W W W :.4.1.:.W ^ E.r ^ E.^ ",
"W W ^ 1.1.^ W ^ E.r ^ E.4.:.W W W W O.4.1.W W #.W ^ E.r ^ E.4.4.4.^ E.r ^ E.^ 1.4.1.^ ^ E.r ^ E.W 4.^ W W ^ 1.4.:.^ ^ E.r ^ E.:.",
"W W ^ 1.:.^ W ^ E.r ^ E.1.1.^ W W W 3.4.^ W W O.W ^ E.r ^ E.4.4.4.^ E.r ^ E.^ 3.4.^ W ^ E.r ^ E.W 4.^ W W ^ :.4.1.^ ^ E.r ^ E.:.",
"W W W :.:.W W ^ E.r ^ E.1.4.^ W W ^ <.4.W W W 1.W ^ E.r ^ E.4.4.4.^ E.r ^ E.W O.3.^ W ^ E.r ^ E.W 4.^ W W W :.4.1.^ ^ E.r ^ E.1.",
"W W W ^ ^ W W ^ E.r ^ E.:.4.1.^ W ^ 4.4.W W W 1.W ^ E.r ^ E.4.4.4.^ E.r ^ E.W ^ :.W W ^ E.r ^ E.W 4.^ W W W ^ 1.4.^ ^ E.r ^ E.1.",
"^ W W W W W ^ ^ E.r ^ E.W 1.4.1.^ 4.4.1.W W W 1.W ^ E.r ^ E.4.4.4.^ E.r ^ E.W W ^ W W ^ E.r ^ E.W 1.:.W W W ^ :.4.1.^ E.r ^ E.4.",
"^ W W W W W ^ ^ E.r ^ E.W :.4.4.4.4.4.:.W W W 4.W ^ E.r ^ E.4.4.<.^ E.r ^ E.W W W W W ^ E.r ^ E.W 1.1.W W W W :.4.1.^ E.r ^ E.4.",
":.W W W W W 1.^ E.r ^ E.W W 4.4.4.4.1.W W W :.4.W ^ E.r ^ E.4.4.1.^ E.r ^ E.W W W W W ^ E.r ^ E.W :.1.^ W W W ^ 1.1.^ E.r ^ E.4.",
":.^ W W W ^ 1.^ E.r ^ E.W W :.1.4.1.:.W W W 1.4.W ^ E.r ^ E.4.1.:.^ E.r ^ E.W W W W W ^ E.r ^ E.W :.4.^ W W W W :.:.^ E.r ^ E.4.",
"1.^ W W W ^ 1.^ E.r ^ E.W W W :.1.:.W W W W 1.4.W ^ E.r ^ E.4.1.:.^ E.r ^ E.W W W W W ^ E.r ^ E.W W 4.^ W W W W W ^ ^ E.r ^ E.4.",
"1.:.W W W ^ 1.^ E.r ^ E.W W W W :.W W W W 1.4.4.:.^ E.r ^ E.1.:.W ^ E.r ^ E.W W W W W ^ E.r ^ E.:.W 4.:.W W W W W W ^ E.r ^ E.4.",
":.:.:.:.:.:.:.^ E.r ^ E.:.W W W W W W W :.:.:.:.:.^ E.r ^ E.:.W W ^ E.r ^ E.:.W W W :.^ E.r ^ E.:.W :.:.W W W W W W ^ E.r ^ E.:."
};
